<?xml version="1.0" encoding="UTF-8" standalone="no"?>
<svg
   id="Layer_1"
   data-name="Layer 1"
   viewBox="0 0 1052.6593 169.4748"
   width="5.0560002in"
   height="0.81400001in"
   version="1.1"
   sodipodi:docname="logo.svg"
   inkscape:version="1.3.2 (091e20ef0f, 2023-11-25)"
   xmlns:inkscape="http://www.inkscape.org/namespaces/inkscape"
   xmlns:sodipodi="http://sodipodi.sourceforge.net/DTD/sodipodi-0.dtd"
   xmlns="http://www.w3.org/2000/svg"
   xmlns:svg="http://www.w3.org/2000/svg"
   xmlns:rdf="http://www.w3.org/1999/02/22-rdf-syntax-ns#"
   xmlns:cc="http://creativecommons.org/ns#"
   xmlns:dc="http://purl.org/dc/elements/1.1/">
  <defs
     id="defs2" />
  <sodipodi:namedview
     id="namedview2"
     pagecolor="#505050"
     bordercolor="#ffffff"
     borderopacity="1"
     inkscape:showpageshadow="0"
     inkscape:pageopacity="0"
     inkscape:pagecheckerboard="1"
     inkscape:deskcolor="#505050"
     inkscape:zoom="1.7158388"
     inkscape:cx="200.19363"
     inkscape:cy="181.54386"
     inkscape:window-width="1280"
     inkscape:window-height="1391"
     inkscape:window-x="1920"
     inkscape:window-y="12"
     inkscape:window-maximized="0"
     inkscape:current-layer="Layer_1"
     inkscape:document-units="in" />
  <title
     id="title1">UE_Logo_Horizontal_RGB_web</title>
  <g
     id="g2"
     transform="translate(-167.64,-164.74)">
    <path
       d="m 955.27,269.69 c 0,-21 -16.8,-37.54 -37.95,-37.54 a 37.55,37.55 0 1 0 0,75.09 c 21.15,0 37.95,-16.5 37.95,-37.55 m 31,-61.43 V 331.13 H 954.7 V 320 a 62.3,62.3 0 0 1 -40,14.22 c -37.38,0 -66.64,-28.73 -66.64,-64.57 0,-35.84 29.26,-64.56 66.64,-64.56 a 62.3,62.3 0 0 1 40,14.22 v -11.05 z m 105,95 h -23.76 c -7.24,0 -11.88,-3.13 -11.88,-9.67 v -57.46 h 35.64 v -27.87 h -35.64 v -35 h -31.87 v 35 h -24 v 27.87 h 24 v 65.42 c 0,16.5 11.88,29.58 33.32,29.58 h 34.19 z m 72,31 c 36.51,0 57.08,-17.07 57.08,-40.67 0,-16.78 -12.17,-29.3 -37.67,-34.71 l -26.94,-5.4 c -15.65,-2.84 -20.57,-5.68 -20.57,-11.37 0,-7.4 7.53,-12 21.44,-12 15.07,0 26.07,4 29.26,17.64 h 31.58 c -1.74,-25.61 -20.57,-42.67 -58.81,-42.67 -33,0 -56.22,13.37 -56.22,39.25 0,17.92 12.76,29.58 40.28,35.27 l 30.13,6.83 c 11.88,2.27 15.07,5.4 15.07,10.24 0,7.68 -9,12.51 -23.47,12.51 -18.25,0 -28.68,-4 -32.74,-17.64 h -31.87 c 4.63,25.6 24.05,42.67 63.45,42.67 M 720.62,164.74 H 839.7 v 28.45 h -86.92 v 40.66 h 84.61 v 27.6 h -84.61 v 41.24 h 86.92 v 28.44 H 720.62 Z"
       id="path1" />
    <path
       d="m 664,231.23 v -22.32 h -8.46 c -13.55,0 -23.46,6.17 -29.51,15.91 v -15 h -24.2 V 331 h 24.43 v -68.9 c 0,-18.76 11.61,-30.87 27.58,-30.87 z m -175.61,28 c 4.36,-18.52 19.6,-30.87 37.74,-30.87 18.14,0 33.38,12.35 37.49,30.87 z m 38.22,-51.77 a 62.85,62.85 0 0 0 -63.37,62.93 c 0,36.09 28.54,63.16 65.55,63.16 22.5,0 40.88,-9.73 53.21,-25.88 l -17.66,-12.82 c -9.18,12.11 -21.28,17.81 -35.55,17.81 a 41.15,41.15 0 0 1 -40.88,-34.43 h 100.37 v -7.84 c 0,-36.09 -26.12,-62.93 -61.68,-62.93 M 387,312.68 a 42.15,42.15 0 0 1 -42.57,-42 c 0,-23.51 19.11,-42 42.57,-42 a 42.03,42.03 0 1 1 0,84.06 M 320.51,331 h 24.19 v -15.2 a 62.14,62.14 0 0 0 44,18.05 c 36.29,0 64.83,-28.26 64.83,-63.16 0,-35.14 -28.54,-63.4 -64.83,-63.4 a 61.52,61.52 0 0 0 -43.77,18 v -60.55 h -24.42 z m -85.87,-19.47 c 23.47,0 41.6,-17.81 41.6,-44.17 V 164.74 h 25.41 V 331 h -25.16 v -15.48 c -11.37,11.64 -27.09,18.29 -44.75,18.29 -36.28,0 -64.1,-25.88 -64.1,-65.06 v -104 H 193 v 102.57 c 0,26.84 17.9,44.17 41.6,44.17"
       id="path2" />
  </g>
  <metadata
     id="metadata2">
    <rdf:RDF>
      <cc:Work
         rdf:about="">
        <dc:title>UE_Logo_Horizontal_RGB_web</dc:title>
      </cc:Work>
    </rdf:RDF>
  </metadata>
</svg>
