<?xml version="1.0" encoding="UTF-8" standalone="no"?>
<svg
   width="177.87975"
   zoomAndPan="magnify"
   viewBox="0 0 133.40981 88.159911"
   height="117.54655"
   preserveAspectRatio="xMidYMid"
   version="1.0"
   id="svg34"
   sodipodi:docname="animo.svg"
   inkscape:version="1.3.2 (091e20ef0f, 2023-11-25)"
   xmlns:inkscape="http://www.inkscape.org/namespaces/inkscape"
   xmlns:sodipodi="http://sodipodi.sourceforge.net/DTD/sodipodi-0.dtd"
   xmlns="http://www.w3.org/2000/svg"
   xmlns:svg="http://www.w3.org/2000/svg">
  <sodipodi:namedview
     id="namedview34"
     pagecolor="#505050"
     bordercolor="#ffffff"
     borderopacity="1"
     inkscape:showpageshadow="0"
     inkscape:pageopacity="0"
     inkscape:pagecheckerboard="1"
     inkscape:deskcolor="#505050"
     inkscape:zoom="1.9866333"
     inkscape:cx="34.983809"
     inkscape:cy="29.950167"
     inkscape:window-width="2536"
     inkscape:window-height="1391"
     inkscape:window-x="12"
     inkscape:window-y="37"
     inkscape:window-maximized="0"
     inkscape:current-layer="svg34"
     showgrid="false" />
  <defs
     id="defs1">
    <g
       id="g1" />
  </defs>
  <g
     id="g35"
     transform="translate(61.123403,-3.2094696)">
    <g
       fill="#296414"
       fill-opacity="1"
       id="g4"
       transform="translate(-117.45763,-19.220339)">
      <g
         transform="translate(68.672977,74.999998)"
         id="g3">
        <g
           id="g2">
          <path
             d="m 1.6875,-7.085938 c 0.113281,0 0.226562,0.039063 0.226562,0.113282 0,0.074218 0.074219,0.074218 0.183594,0.035156 0.113282,-0.035156 0.152344,0 0.113282,0.152344 -0.113282,0.261718 0.152343,0.5625 0.449218,0.5625 0.113282,0 0.675782,-0.414063 1.203125,-0.9375 0.972657,-0.902344 3.074219,-2.550782 3.148438,-2.476563 0.035156,0.039063 -0.1875,0.5625 -0.449219,1.164063 -1.386719,3.261718 -1.839844,5.359375 -1.425781,6.636718 0.261719,0.710938 1.347656,1.984376 1.722656,1.984376 0.113281,0 0.339844,0.113281 0.488281,0.300781 0.375,0.375 0.675782,0.375 0.976563,0.074219 0.222656,-0.261719 0.785156,-1.722657 1.273437,-3.335938 0.449219,-1.574219 1.875,-5.0625 3.074219,-7.574219 0.9375,-2.0625 1.085937,-2.285156 1.5,-2.472656 0.636719,-0.339844 3.675781,-1.164063 5.585937,-1.574219 2.4375,-0.527344 7.5,-1.164062 7.5,-0.9375 0,0.03516 -0.5625,1.347656 -1.238281,2.960938 -1.460937,3.488281 -3.410156,7.421875 -4.648437,9.449218 -1.199219,1.949219 -1.238282,2.0625 -1.164063,2.511719 0.07813,0.449219 0.789063,1.460938 0.9375,1.386719 0.03906,-0.039062 0.1875,0.039062 0.300781,0.148438 0.113282,0.113281 0.375,0.453124 0.636719,0.75 0.375,0.449218 0.488281,0.488281 0.9375,0.488281 0.300781,0 0.601563,-0.074219 0.789063,-0.226563 0.785156,-0.671875 3.261718,-5.285156 5.097656,-9.484375 0.9375,-2.175781 2.625,-6.558593 2.8125,-7.308593 0.07422,-0.1875 0.148438,-0.375 0.1875,-0.414063 0.03906,-0.03906 0.488281,0.03906 0.976562,0.1875 0.484376,0.148437 0.972657,0.226563 1.121094,0.226563 0.152344,0 0.414063,0.148437 0.5625,0.335937 l 0.300782,0.335937 0.261718,-0.261718 c 0.1875,-0.1875 0.226563,-0.335938 0.152344,-0.5625 -0.07422,-0.335938 -0.824219,-1.3125 -1.800781,-2.324219 l -0.75,-0.75 0.152343,-0.5625 c 0.449219,-1.761719 0.746094,-3.296875 0.933594,-4.421875 0.226563,-1.652344 0.226563,-4.164062 0,-5.289062 -0.222656,-1.085938 -0.859375,-2.398438 -1.535156,-3.261719 -0.300781,-0.375 -0.710938,-0.9375 -0.898438,-1.238281 -0.675781,-1.199219 -1.875,-1.949219 -3.226562,-2.058594 -2.136719,-0.113282 -4.3125,1.160156 -7.835938,4.683594 -1.875,1.914062 -3.375,3.675781 -5.097656,6.074218 -1.351562,1.800782 -3.449218,5.0625 -4.351562,6.675782 -0.671875,1.234374 -0.859375,1.460937 -1.234375,1.609374 -2.0625,0.863282 -4.988281,2.511719 -6.261719,3.601563 -1.6875,1.425781 -2.4375,2.511719 -2.4375,3.597656 0,0.714844 0.375,1.425781 0.75,1.425781 z m 6.710938,6.261719 C 8.285156,-0.523438 8.171875,-0.226562 8.136719,-0.1875 8.0625,-0.113281 8.097656,-0.335938 8.210938,-0.675781 c 0.113281,-0.335938 0.1875,-0.636719 0.1875,-0.710938 0,-0.074219 0.039062,-0.074219 0.074218,-0.039062 0.039063,0.039062 0,0.300781 -0.074218,0.601562 z m 1.722656,-5.136719 c -0.371094,0.9375 -0.898438,2.472657 -1.234375,3.488282 -0.226563,0.785156 -0.375,1.085937 -0.375,0.785156 0,-0.410156 1.6875,-5.097656 1.796875,-4.984375 0.03906,0.035156 -0.07422,0.335937 -0.1875,0.710937 z m 12.636718,3.9375 c 1.273438,-2.25 3.261719,-6.414062 4.800782,-10.160156 0.824218,-1.949218 1.046875,-2.289062 0.375,-0.527344 -1.5,3.863282 -3.261719,7.613282 -4.6875,10.050782 -0.488282,0.859375 -0.976563,1.609375 -1.011719,1.648437 -0.07813,0.035157 0.148437,-0.414062 0.523437,-1.011719 z m -1.085937,1.9843755 C 21.59375,0.148438 21.519531,0.1875 21.519531,0.0390625 c 0,-0.078125 0.03906,-0.1523435 0.113281,-0.1875005 0.07422,-0.078124 0.07422,0 0.03906,0.1093755 z m 1.347656,0.078125 C 22.757812,0.375 22.53125,0.636719 22.457031,0.636719 c -0.07422,0 0,-0.1875 0.1875,-0.410157 0.675781,-0.902343 2.25,-3.636718 3.335938,-5.851562 0.640625,-1.3125 1.164062,-2.359375 1.164062,-2.324219 0,0.152344 -1.085937,2.550781 -1.835937,4.011719 -0.824219,1.652344 -1.6875,3.148438 -2.289063,3.9765625 z m 2.289063,-1.2382815 c -0.07422,0.113281 -0.152344,0.222657 -0.1875,0.222657 -0.03906,0 0,-0.109376 0.07422,-0.222657 0.03906,-0.152343 0.148438,-0.261719 0.1875,-0.261719 0.03516,0 0,0.109376 -0.07422,0.261719 z m 1.085937,-2.101562 c -0.414062,0.828125 -0.75,1.464843 -0.789062,1.464843 -0.07422,0 0.07813,-0.300781 0.488281,-1.125 0.375,-0.675781 1.949219,-4.164062 2.8125,-6.226562 0.1875,-0.449219 0.375,-0.824219 0.414062,-0.785156 0.109376,0.113281 -1.800781,4.460937 -2.925781,6.671875 z m 0.898438,-6.371094 c -1.535157,3.636719 -3.371094,7.121094 -5.058594,9.7109375 -0.265625,0.4101565 -0.488281,0.5976565 -0.488281,0.4101565 0,-0.035157 0.300781,-0.5234378 0.636718,-1.085938 0.9375,-1.425781 1.800782,-3 3.035157,-5.550781 0.976562,-1.949219 3.039062,-6.710938 3.714843,-8.472656 0.113282,-0.375 0.261719,-0.636719 0.296876,-0.597656 0.07812,0.109374 -0.972657,2.886718 -2.136719,5.585937 z m 3,-20.695313 c 0.527343,0.261719 0.449219,3.035157 -0.1875,6.070313 -0.261719,1.390625 -1.011719,4.050781 -1.347657,4.988281 l -0.152343,0.300782 -2.960938,0.07422 c -2.925781,0.07422 -4.199219,0.1875 -6.9375,0.710938 -1.871093,0.300781 -1.796875,0.339844 -1.460937,-0.222656 0.449218,-0.75 2.023437,-2.964844 2.960937,-4.125 4.125,-5.285157 8.476563,-8.660157 10.085938,-7.796876 z m -12.933594,10.683594 c -0.148437,0.226563 -0.261719,0.261719 -0.261719,0.1875 0,-0.03906 0.07422,-0.113281 0.222656,-0.226562 0.1875,-0.148438 0.1875,-0.148438 0.03906,0.03906 z m 0.1875,-1.988281 c 0.1875,-0.148437 0.1875,-0.148437 0.03516,0.03906 -0.07422,0.113281 -0.183593,0.222656 -0.183593,0.222656 -0.113282,0 -0.03906,-0.109375 0.148437,-0.261719 z m 0.675781,-0.824219 c -0.1875,0.226563 -0.265625,0.261719 -0.265625,0.1875 0,-0.03516 0.07813,-0.148437 0.1875,-0.222656 0.226563,-0.152344 0.226563,-0.152344 0.07813,0.03516 z m 0.109375,-0.300781 c 0,-0.03516 0.07813,-0.148437 0.1875,-0.222656 0.1875,-0.152344 0.226563,-0.152344 0.07813,0.03516 -0.1875,0.226563 -0.265625,0.265625 -0.265625,0.1875 z m 0.976563,-1.273437 0.414062,-0.335938 -0.300781,0.375 c -0.1875,0.222656 -0.339844,0.410156 -0.414063,0.410156 -0.148437,0 -0.113281,-0.07422 0.300782,-0.449218 z m 1.386718,-1.613282 c 0.07422,-0.03516 -0.07422,0.1875 -0.335937,0.488282 -0.261719,0.335937 -0.488281,0.601562 -0.527344,0.601562 -0.07422,0 0.675781,-0.976562 0.863281,-1.089844 z m 3.976563,-4.496094 c -3,2.699219 -5.699219,5.847657 -8.773437,10.457032 -0.902344,1.351562 -1.6875,2.476562 -1.765626,2.476562 -0.1875,0 1.988282,-3.335937 3.789063,-5.773437 2.023437,-2.738281 4.3125,-5.210938 6.035156,-6.636719 1.199219,-1.011719 1.574219,-1.273438 0.714844,-0.523438 z m -1.203125,0.07422 c 0.1875,-0.152343 -0.335938,0.410157 -1.160156,1.234375 -2.476563,2.515625 -4.761719,5.363282 -7.199219,9.113282 -0.710937,1.085937 -1.386719,2.136718 -1.5,2.359374 -0.148437,0.226563 -0.300781,0.375 -0.410156,0.375 -0.226563,0 2.246093,-3.824218 4.160156,-6.371093 1.761719,-2.363281 4.796875,-5.664063 6.109375,-6.710938 z m -7.347656,7.648438 c 1.011718,-1.425781 3,-3.9375 3.1875,-4.050781 0.07422,-0.03516 -0.375,0.527343 -0.976563,1.3125 -1.234375,1.5 -3.746093,5.136718 -4.871093,6.972656 -0.675782,1.125 -1.011719,1.613281 -1.011719,1.425781 0,-0.226563 2.359375,-3.863281 3.671875,-5.660156 z m -3.222656,10.121093 c 0,0.03906 -0.261719,0.675782 -0.636719,1.425782 -0.375,0.710937 -0.675781,1.273437 -0.675781,1.238281 0,-0.1875 1.238281,-2.699219 1.3125,-2.664063 z m -1.3125,2.8125 c 0,0.039063 -0.261719,0.636719 -0.5625,1.3125 -0.527344,1.199219 -0.675782,1.5 -0.675782,1.351563 0,-0.226563 1.199219,-2.851563 1.238282,-2.664063 z m -1.050782,-0.597656 C 9.1875,-7.085938 8.324219,-4.949219 7.6875,-2.699219 7.421875,-1.835938 7.199219,-1.5 7.347656,-2.175781 7.5,-2.773438 8.171875,-4.949219 8.472656,-5.8125 c 0.414063,-1.085938 1.800782,-4.308594 2.289063,-5.246094 0.597656,-1.238281 0.484375,-0.675781 -0.226563,0.937501 z m -0.488281,-1.089844 c 0.414063,-0.523437 0.226563,0.03906 -0.523437,1.6875 C 8.4375,-7.085938 7.574219,-4.6875 7.160156,-3.035156 6.75,-1.460938 6.636719,-1.199219 6.75,-2.175781 c 0.1875,-1.421875 0.824219,-3.335938 2.171875,-6.523438 0.527344,-1.273437 1.050781,-2.398437 1.125,-2.511718 z m -0.5625,0.1875 c 0.078125,0 -0.296875,0.9375 -0.785156,2.101563 -0.488281,1.125 -1.199219,2.886719 -1.5,3.898437 -0.339844,0.972657 -0.675781,1.988282 -0.75,2.210938 L 6.335938,-2.363281 6.375,-2.886719 c 0.074219,-0.675781 0.671875,-2.511719 1.347656,-4.199219 0.863282,-2.136718 1.6875,-3.9375 1.761719,-3.937499 z m -6.222656,2.289063 c -0.300781,0.523437 -0.976563,1.574219 -0.976563,1.5 0,-0.1875 0.453125,-1.015625 0.789063,-1.390625 0.1875,-0.1875 0.261719,-0.261719 0.1875,-0.109375 z M 2.585938,-8.773438 C 2.625,-8.734375 2.511719,-8.4375 2.324219,-8.0625 c -0.300781,0.640625 -0.488281,0.789062 -0.335938,0.339844 0.109375,-0.375 0.5625,-1.125 0.597657,-1.050782 z M 1.914062,-8.4375 c 0.074219,-0.109375 0.109376,-0.109375 0.109376,-0.074219 0,0.074219 -0.035157,0.226563 -0.109376,0.339844 -0.078124,0.074219 -0.113281,0.109375 -0.113281,0.035156 0,-0.074219 0.035157,-0.1875 0.113281,-0.300781 z m 25.941407,-30.367188 c 0.113281,-0.07422 0.453125,0.414063 0.453125,0.601563 0,0.335937 0.1875,0.597656 0.375,0.484375 0.07422,-0.03516 0.109375,-0.03516 0.109375,0.03906 0,0.300782 0.488281,-0.148437 2.25,-2.210937 0.976562,-1.125 2.210937,-2.4375 2.738281,-2.886719 0.488281,-0.488281 0.972656,-1.015625 1.050781,-1.164062 0.148438,-0.261719 0.109375,-0.335938 -0.414062,-0.898438 -0.449219,-0.488281 -0.675781,-0.601562 -0.976563,-0.601562 -1.046875,0 -5.398437,3.636718 -6.148437,5.136718 -0.261719,0.523438 -0.261719,0.523438 -0.03516,1.011719 0.222657,0.449219 0.449219,0.601563 0.597657,0.488281 z m 4.164062,-3.972656 c 0.300781,-0.265625 0.03516,0.07422 -0.636719,0.75 -0.640624,0.671875 -1.539062,1.648438 -1.988281,2.171875 -0.449219,0.527344 -0.824219,0.902344 -0.824219,0.824219 0,-0.222656 2.359376,-2.808594 3.449219,-3.746094 z m -1.949219,1.347656 0.410157,-0.375 -0.375,0.414063 c -0.1875,0.222656 -0.375,0.375 -0.410157,0.375 -0.07812,0 0,-0.07422 0.375,-0.414063 z m -1.199218,1.273438 c 0.710937,-0.824219 0.671875,-0.785156 0.671875,-0.710938 0,0.03906 -0.261719,0.414063 -0.597657,0.863282 -0.339843,0.410156 -0.636718,0.710937 -0.636718,0.636718 0,-0.03906 0.261718,-0.414062 0.5625,-0.789062 z m 0,0"
             id="path2" />
        </g>
      </g>
    </g>
    <g
       fill="#296414"
       fill-opacity="1"
       id="g7"
       transform="translate(-117.45763,-19.220339)">
      <g
         transform="translate(104.96169,74.999998)"
         id="g6">
        <g
           id="g5">
          <path
             d="m 21.820312,-15.296875 c -1.050781,1.085937 -2.925781,3.222656 -3.523437,4.050781 -0.375,0.484375 -1.164063,1.535156 -1.761719,2.324219 -1.613281,2.136719 -3.113281,3.746094 -4.238281,4.496094 -0.488281,0.375 -0.523437,0.375 -0.523437,-0.035157 0,-0.824218 0.636718,-2.511718 2.773437,-7.648437 1.875,-4.539063 2.0625,-5.773437 0.898437,-6.824219 -0.261718,-0.226562 -0.597656,-0.488281 -0.75,-0.5625 -0.148437,-0.07422 -0.335937,-0.300781 -0.410156,-0.488281 -0.152344,-0.375 -0.601562,-0.5625 -1.125,-0.410156 -0.414062,0.07422 -1.949218,1.648437 -2.886718,2.886719 -1.011719,1.347656 -3.226563,4.609374 -4.425782,6.558593 -2.25,3.527344 -3.75,5.550781 -3.75,5.0625 -0.035156,-0.636719 1.3125,-4.5 2.476563,-7.160156 1.386719,-3.1875 1.910156,-4.574219 1.910156,-4.988281 0,-0.261719 -0.5625,-0.859375 -0.710937,-0.785156 -0.074219,0.03516 -0.148438,0 -0.1875,-0.113282 -0.035157,-0.113281 -0.113282,-0.148437 -0.1875,-0.113281 -0.074219,0.03906 -0.1875,-0.07422 -0.222657,-0.222656 -0.078125,-0.1875 -0.226562,-0.375 -0.375,-0.453125 -0.828125,-0.449219 -2.027343,0.9375 -3.675781,4.3125 C -0.710938,-11.734375 -1.425781,-8.625 -0.9375,-6.5625 -0.75,-5.699219 0,-4.574219 0.488281,-4.386719 0.710938,-4.3125 0.9375,-4.125 1.011719,-4.011719 c 0.339843,0.449219 0.863281,0.75 1.386719,0.75 0.449218,0 0.636718,-0.074219 1.089843,-0.488281 0.710938,-0.710938 1.648438,-2.023438 3.371094,-4.949219 1.5,-2.472656 3.449219,-5.433593 3.527344,-5.324219 0.03516,0 -0.152344,0.449219 -0.375,1.011719 -1.726563,4.089844 -2.101563,6.976563 -1.125,8.8125 0.261719,0.5625 0.972656,1.125 1.535156,1.273438 0.261719,0.078125 0.527344,0.226562 0.636719,0.339843 0.07813,0.074219 0.300781,0.222657 0.527344,0.261719 0.1875,0.074219 0.449218,0.113281 0.523437,0.074219 0.113281,-0.035156 0.261719,-0.035156 0.339844,-0.035156 0.375,0 1.683593,-1.164063 2.546875,-2.25 1.089844,-1.351563 3.148437,-4.238282 4.875,-6.863282 0.710937,-1.011718 1.613281,-2.359374 2.023437,-2.921874 0.636719,-0.902344 0.714844,-1.015626 0.527344,-1.203126 -0.1875,-0.1875 -0.226563,-0.148437 -0.601563,0.226563 z M 5.210938,-15.972656 c 0.039062,-0.113282 0.113281,-0.1875 0.152343,-0.148438 0.035157,0.03516 0,0.148438 -0.078125,0.222656 -0.109375,0.113282 -0.148437,0.113282 -0.074218,-0.07422 z m -2.511719,6.261718 c -0.335938,0.9375 -0.601563,1.5 -0.523438,1.273438 0.074219,-0.449219 1.011719,-3.109375 1.085938,-3.035156 0,0.03906 -0.226563,0.824218 -0.5625,1.761718 z m 0.976562,-2.511718 c -0.078125,0.07422 -0.113281,0.113281 -0.113281,0.03906 0,-0.07813 0.035156,-0.1875 0.113281,-0.300781 0.074219,-0.113281 0.109375,-0.113281 0.109375,-0.07422 0,0.07422 -0.035156,0.222656 -0.109375,0.335938 z m 0.597657,-1.351563 c -0.035157,0.07813 -0.113282,0.113281 -0.113282,0.03906 0,-0.07422 0.078125,-0.1875 0.113282,-0.300782 0.074218,-0.109374 0.152343,-0.109374 0.152343,-0.07422 0,0.07422 -0.078125,0.226562 -0.152343,0.335937 z m 0.375,-0.859375 c -0.035157,0.07422 -0.113282,0.113282 -0.113282,0.03516 0,-0.07422 0.078125,-0.1875 0.113282,-0.296874 0.074218,-0.113282 0.113281,-0.113282 0.113281,-0.07813 0,0.07813 -0.039063,0.226563 -0.113281,0.339844 z M 3.375,-16.835938 c 0.035156,-0.109374 0.113281,-0.1875 0.148438,-0.148437 0.039062,0.03906 0,0.148437 -0.074219,0.226563 -0.113281,0.109374 -0.148438,0.109374 -0.074219,-0.07813 z M 0.300781,-9.375 c 0.148438,-0.933594 0.9375,-3.074219 1.949219,-5.097656 0.523438,-1.125 1.011719,-2.0625 1.011719,-2.023438 0.039062,0.03516 -0.300781,0.785156 -0.75,1.6875 -0.414063,0.898438 -0.972657,2.136719 -1.199219,2.734375 -0.261719,0.640625 -0.601562,1.578125 -0.75,2.175781 -0.1875,0.5625 -0.300781,0.824219 -0.261719,0.523438 z m 0.597657,0.078125 C 0.601562,-8.324219 0.488281,-8.0625 0.5625,-8.472656 c 0.074219,-0.824219 0.710938,-2.851563 1.199219,-4.085938 0.75,-1.800781 2.773437,-5.699218 2.925781,-5.699218 0.035156,0 -0.527344,1.160156 -1.199219,2.546874 -0.675781,1.390626 -1.464843,3.074219 -1.6875,3.75 -0.261719,0.675782 -0.675781,1.875 -0.902343,2.664063 z m 0.5625,-0.488281 c -0.035157,-0.5625 3.1875,-7.875 3.449218,-7.875 0.039063,0 -0.449218,1.164062 -1.125,2.589844 -0.671875,1.421874 -1.386718,3.109374 -1.648437,3.710937 C 1.613281,-9.972656 1.5,-9.710938 1.460938,-9.785156 Z m 0.488281,2.398437 C 1.875,-7.234375 1.835938,-7.199219 1.835938,-7.3125 c 0,-0.109375 0.078124,-0.296875 0.113281,-0.449219 0.074219,-0.148437 0.113281,-0.1875 0.113281,-0.074219 0,0.113282 -0.039062,0.300782 -0.113281,0.449219 z m 13.121093,-7.609375 c 0,0 -0.261718,0.75 -0.597656,1.609375 -0.636718,1.578125 -0.714844,1.800781 -0.714844,1.578125 -0.03516,-0.1875 1.238282,-3.261718 1.3125,-3.1875 z m -1.910156,-1.386718 c 0.300782,-0.640626 0.5625,-1.125 0.597656,-1.125 0.113282,0 -0.296874,0.972656 -1.648437,3.933593 -0.636719,1.351563 -1.199219,2.625 -1.273437,2.8125 l -0.152344,0.300781 0.07813,-0.300781 c 0.03516,-0.296875 0.972656,-2.4375 2.398437,-5.621093 z m -3.039062,0.671874 c 0.265625,-0.375 0.375,-0.449218 0.1875,-0.109374 -0.07422,0.148437 -0.1875,0.296874 -0.261719,0.335937 -0.074219,0.03906 -0.03516,-0.07422 0.07422,-0.226563 z m -0.484375,0.640626 c 0.113281,-0.113282 0.261719,-0.226563 0.261719,-0.226563 0.035156,0 -0.039063,0.113281 -0.148438,0.226563 -0.113281,0.148437 -0.226562,0.261718 -0.265625,0.261718 -0.035156,0 0.039063,-0.113281 0.152344,-0.261718 z m -0.300781,0.410156 c 0.074218,-0.03516 0.039062,0.07422 -0.074219,0.261718 -0.113281,0.1875 -0.226563,0.300782 -0.261719,0.300782 -0.078125,0 0.1875,-0.449219 0.335938,-0.5625 z M 6.9375,-11.023438 c 0.035156,0 -0.039062,0.152344 -0.113281,0.339844 -0.261719,0.484375 -0.675781,1.085938 -0.675781,1.011719 0,-0.113281 0.75,-1.351563 0.789062,-1.351563 z M 5.625,-8.921875 C 5.699219,-9.074219 5.8125,-9.1875 5.847656,-9.1875 c 0.039063,0 0,0.113281 -0.074218,0.265625 -0.074219,0.148437 -0.148438,0.222656 -0.1875,0.222656 -0.035157,0 0,-0.074219 0.039062,-0.222656 z M 5.398438,-8.511719 C 5.472656,-8.546875 5.4375,-8.4375 5.324219,-8.25 5.210938,-8.097656 5.097656,-7.949219 5.0625,-7.949219 c -0.074219,0 0.222656,-0.449219 0.335938,-0.5625 z M 3.5625,-5.210938 c -0.074219,0.113282 -0.1875,0.222657 -0.226562,0.222657 -0.074219,0 0,-0.109375 0.1875,-0.261719 0.1875,-0.148438 0.1875,-0.148438 0.039062,0.039062 z M 4.6875,-6.75 c -0.375,0.5625 -0.75,1.089844 -0.824219,1.164062 -0.1875,0.148438 1.347657,-2.175781 1.574219,-2.4375 0.1875,-0.148437 0,0.148438 -0.75,1.273438 z M 6.375,-9.410156 c -0.339844,0.5625 -0.675781,1.085937 -0.75,1.160156 -0.152344,0.113281 -0.152344,0.078125 0.859375,-1.574219 0.375,-0.597656 0.675781,-1.046875 0.714844,-1.046875 0.074219,0 -0.113281,0.261719 -0.824219,1.460938 z m 0.898438,-2.101563 c -0.074219,0 0.1875,-0.449219 0.335937,-0.5625 0.078125,-0.03516 0.039063,0.07813 -0.074219,0.265625 -0.113281,0.148438 -0.222656,0.296875 -0.261718,0.296875 z m 0.898437,-0.785156 c -0.148437,0.222656 -0.335937,0.523437 -0.449219,0.675781 l -0.261718,0.296875 0.226562,-0.375 c 0.109375,-0.1875 0.296875,-0.523437 0.449219,-0.671875 l 0.222656,-0.300781 z m 0.414063,-0.636719 c -0.148438,0.1875 -0.226563,0.261719 -0.226563,0.148438 0,0 0.078125,-0.113282 0.1875,-0.226563 0.1875,-0.148437 0.226563,-0.109375 0.039063,0.07813 z M 9,-13.535156 c -0.113281,0.148437 -0.226562,0.300781 -0.265625,0.300781 -0.074219,0 0.226563,-0.449219 0.375,-0.5625 0.039063,-0.03906 0.039063,0.07422 -0.109375,0.261719 z m 0.933594,-1.3125 c -0.335938,0.488281 -0.671875,0.902344 -0.671875,0.902344 -0.152344,0 1.875,-2.664063 2.210937,-2.964844 0.148438,-0.113282 0,0.113281 -0.335937,0.488281 -0.300781,0.375 -0.828125,1.085937 -1.203125,1.574219 z m -0.410156,8.363281 c 0.113281,-0.75 0.449218,-2.101563 0.488281,-2.027344 0.03516,0 -0.078125,0.601563 -0.1875,1.238281 C 9.5625,-6 9.335938,-5.511719 9.523438,-6.484375 Z m 0.5625,0.335937 c -0.07422,0.597657 -0.113282,0.75 -0.152344,0.523438 -0.222656,-1.046875 0.789062,-4.273438 2.664062,-8.359375 0.710938,-1.539063 1.386719,-3.039063 1.460938,-3.335937 0.113281,-0.261719 0.226562,-0.414063 0.261718,-0.339844 0.07813,0.1875 -0.449218,1.464844 -1.648437,4.085937 -1.160156,2.515625 -1.761719,4.011719 -2.175781,5.476563 -0.1875,0.597656 -0.375,1.460937 -0.410156,1.949218 z m 1.273437,1.199219 c -0.03516,0.074219 -0.03516,0 -0.03516,-0.1875 0,-0.148437 0,-0.226562 0.03516,-0.148437 0.03906,0.109375 0.03906,0.222656 0,0.335937 z M 10.949219,-7.5 c -0.226563,0.714844 -0.414063,1.464844 -0.453125,1.578125 -0.03516,0.183594 -0.03516,0.183594 -0.03516,-0.078125 -0.03906,-0.410156 0.375,-1.984375 0.824218,-3.296875 0.414063,-1.089844 2.738282,-6.300781 2.773438,-6.226563 0.03906,0.03906 -0.300782,0.902344 -0.75,1.949219 -1.6875,3.9375 -1.984375,4.761719 -2.359375,6.074219 z m 5.511719,0.1875 c -0.07813,0.113281 -0.1875,0.226562 -0.226563,0.226562 -0.07422,0 -0.03906,-0.113281 0.1875,-0.261718 C 16.609375,-7.5 16.609375,-7.5 16.460938,-7.3125 Z m 1.273437,-1.761719 c -0.113281,0.152344 -0.261719,0.261719 -0.300781,0.226563 0,-0.039063 -0.148438,0 -0.222656,0.074218 -0.1875,0.148438 -0.1875,0.113282 -0.03906,-0.074218 0.07422,-0.113282 0.1875,-0.1875 0.226563,-0.152344 0.03516,0.039062 0.183593,-0.035156 0.335937,-0.148438 0.261719,-0.226562 0.261719,-0.226562 0,0.074219 z m 1.199219,-1.648437 c -0.226563,0.226562 -0.226563,0.261718 -0.335938,0.03906 -0.07813,-0.07813 -0.07813,-0.113281 0,-0.03906 0.03516,0.03906 0.1875,0 0.296875,-0.07422 0.152344,-0.152344 0.152344,-0.113281 0.03906,0.07422 z m 0.335937,-0.488282 c -0.07422,0.113282 -0.1875,0.1875 -0.222656,0.152344 -0.03906,-0.03906 -0.152344,0 -0.261719,0.07422 -0.152344,0.148437 -0.1875,0.148437 -0.03906,-0.07422 0.113281,-0.113281 0.226562,-0.1875 0.261718,-0.152344 0.03906,0.03906 0.152344,0 0.261719,-0.07422 0.152344,-0.148438 0.152344,-0.148438 0,0.07422 z m 0.5625,-0.785156 c -0.07422,0.03516 -0.148437,0.07422 -0.1875,0.07422 -0.03516,0 -0.148437,0.03516 -0.261719,0.113281 -0.148437,0.07422 -0.148437,0.07422 -0.03516,-0.07813 0.109375,-0.07422 0.261719,-0.1875 0.375,-0.1875 0.109375,0 0.148438,0 0.109375,0.07813 z m 0.527344,-0.714844 c -0.113281,0.1875 -0.300781,0.375 -0.375,0.414063 -0.113281,0.07422 -0.07422,0 0.03516,-0.152344 0.265625,-0.296875 0.300781,-0.449219 0.07813,-0.335937 -0.07813,0.03906 -0.03906,-0.03906 0.07422,-0.148438 0.335937,-0.414062 0.488281,-0.226562 0.1875,0.222656 z m 0.75,-0.9375 c 0,0 -0.07422,0 -0.1875,0 -0.07422,0 -0.152344,-0.03516 -0.113281,-0.07422 0.07422,-0.113282 0.300781,-0.03516 0.300781,0.07422 z m 0.148437,-0.484374 c -0.07422,0 -0.148437,0 -0.148437,0 0,-0.03906 0.07422,-0.113282 0.148437,-0.1875 0.152344,-0.07813 0.1875,-0.07813 0.1875,0.03516 0,0.07422 -0.07422,0.152344 -0.1875,0.152344 z m 0.75,-0.75 c -0.03906,-0.03906 -0.148437,0 -0.261718,0.109374 -0.113282,0.07813 -0.113282,0.03906 0.03516,-0.148437 0.265625,-0.300781 0.265625,-0.300781 0.265625,-0.07422 0,0.113282 -0.03906,0.148438 -0.03906,0.113282 z m 0,0"
             id="path4" />
        </g>
      </g>
    </g>
    <g
       fill="#296414"
       fill-opacity="1"
       id="g10"
       transform="translate(-117.45763,-19.220339)">
      <g
         transform="translate(123.96827,74.999998)"
         id="g9">
        <g
           id="g8">
          <path
             d="m 13.199219,-14.398438 c -0.1875,-0.1875 -0.265625,-0.148437 -1.238281,0.902344 -0.5625,0.597656 -1.574219,1.722656 -2.210938,2.511719 C 7.234375,-8.0625 5.660156,-6.410156 4.6875,-5.699219 3.710938,-5.0625 2.8125,-4.613281 2.210938,-4.535156 L 1.726562,-4.460938 V -5.0625 c 0,-1.574219 0.785157,-3.710938 3.148438,-8.511719 1.574219,-3.222656 1.875,-4.046875 1.460938,-4.046875 -0.113282,0 -0.1875,-0.07422 -0.1875,-0.1875 0,-0.148437 -0.074219,-0.1875 -0.261719,-0.148437 -0.148438,0.03516 -0.1875,0.03516 -0.148438,-0.07813 0.035157,-0.07422 0,-0.07422 -0.113281,-0.03516 -0.152344,0.07422 -0.226562,0.03516 -0.1875,-0.152344 0.035156,-0.109375 -0.039062,-0.1875 -0.152344,-0.148438 -0.148437,0 -0.261718,-0.113281 -0.375,-0.335937 -0.671875,-1.652344 -2.699218,0.222656 -4.8359372,4.535156 -1.3867188,2.738281 -1.8749998,4.574219 -1.7617188,6.523437 0.113281,1.613282 0.898438,3.1875 1.914062,3.785157 0.261719,0.152343 0.597657,0.414062 0.785157,0.5625 0.1875,0.1875 0.527343,0.375 0.789062,0.488281 0.597657,0.226562 1.125,0.152344 1.949219,-0.261719 1.835938,-0.863281 5.734375,-5.285156 8.886719,-9.972656 0.710937,-1.085937 0.75,-1.164063 0.5625,-1.351563 z m -10.988281,5.25 c -0.074219,0.113282 -0.113282,0.113282 -0.113282,0.074219 0,-0.074219 0.039063,-0.222656 0.113282,-0.335937 0.074218,-0.074219 0.113281,-0.113282 0.113281,-0.039063 0,0.074219 -0.039063,0.1875 -0.113281,0.300781 z m 0.527343,-1.199218 c -0.226562,0.414062 -0.375,0.75 -0.375,0.675781 C 2.324219,-9.785156 3,-11.246094 3.035156,-11.210938 c 0.039063,0.03906 -0.109375,0.414063 -0.296875,0.863282 z M 3.375,-11.808594 c -0.074219,0.222656 -0.1875,0.261719 -0.1875,0.07422 0,-0.03906 0.074219,-0.152344 0.148438,-0.1875 0.039062,-0.03906 0.074218,0.03516 0.039062,0.113281 z m 0.75,-3.300781 c -0.113281,0.226563 -0.1875,0.261719 -0.1875,0.07422 0,-0.07422 0.035156,-0.148438 0.113281,-0.1875 0.074219,-0.03516 0.109375,0 0.074219,0.113281 z m -1.914062,0.1875 c 0.152343,-0.261719 0.300781,-0.488281 0.300781,-0.488281 0.039062,0 -0.039063,0.226562 -0.1875,0.488281 -0.113281,0.261719 -0.261719,0.488281 -0.300781,0.488281 -0.035157,0 0.039062,-0.226562 0.1875,-0.488281 z m -2.546876,6.074219 C -0.375,-9.335938 0.261719,-11.023438 1.050781,-12.671875 1.5,-13.574219 1.875,-14.320312 1.914062,-14.320312 c 0.074219,0 -0.265624,0.746093 -0.828124,1.910156 -0.261719,0.5625 -0.710938,1.613281 -0.972657,2.398437 -0.261719,0.789063 -0.449219,1.3125 -0.449219,1.164063 z m 0.222657,1.3125 c 0,-0.527344 0.375,-2.175782 0.789062,-3.226563 0.785157,-1.984375 2.734375,-5.621093 3.523438,-6.484375 l 0.261719,-0.300781 -0.222657,0.375 c -1.3125,2.136719 -2.699219,4.875 -3.300781,6.410156 -0.1875,0.527344 -0.523438,1.5 -0.710938,2.214844 -0.1523432,0.710937 -0.339843,1.160156 -0.339843,1.011719 z m 0.976562,-1.199219 c 0,0.074219 -0.039062,0.222656 -0.113281,0.335937 -0.226562,0.300782 0,-0.601562 0.449219,-1.835937 0.527343,-1.464844 2.398437,-5.175781 3.226562,-6.449219 0.636719,-0.9375 0.972657,-1.3125 0.484375,-0.488281 -1.609375,2.699219 -4.046875,7.722656 -4.046875,8.4375 z m 0.488281,2.023437 c 0,-0.261718 0.636719,-2.25 0.671876,-2.175781 0.039062,0.039063 -0.109376,0.5625 -0.296876,1.199219 -0.1875,0.640625 -0.339843,1.089844 -0.375,0.976562 z M 8.625,-8.734375 c -0.152344,0.1875 -0.265625,0.261719 -0.265625,0.148437 0,-0.039062 0.078125,-0.113281 0.226563,-0.226562 0.1875,-0.148438 0.1875,-0.148438 0.039062,0.078125 z m 0.523438,-0.300781 c -0.113282,0.148437 -0.226563,0.261718 -0.261719,0.261718 -0.039063,0 0.035156,-0.113281 0.148437,-0.261718 0.113282,-0.113282 0.261719,-0.226563 0.261719,-0.226563 0.039063,0 -0.035156,0.113281 -0.148437,0.226563 z m 0.074218,-0.449219 c -0.148437,0.1875 -0.261718,0.261719 -0.261718,0.148437 0,0 0.113281,-0.113281 0.226562,-0.1875 0.1875,-0.148437 0.1875,-0.148437 0.035156,0.039063 z m 0.488282,-0.601563 c -0.148438,0.1875 -0.261719,0.261719 -0.261719,0.152344 0,-0.039062 0.113281,-0.113281 0.222656,-0.226562 0.1875,-0.148438 0.1875,-0.148438 0.039063,0.07422 z m 0.488281,-0.261718 c -0.152344,0.226562 -0.265625,0.261718 -0.265625,0.1875 0,-0.03906 0.113281,-0.148438 0.226562,-0.226563 0.1875,-0.148437 0.1875,-0.148437 0.03906,0.03906 z m 0.5625,-0.789063 c -0.113281,-0.03516 -0.265625,0.03906 -0.300781,0.152344 -0.03906,0.113281 0,0.113281 0.113281,0.03516 0.148437,-0.07422 0.148437,-0.03516 0,0.113281 -0.07813,0.113282 -0.1875,0.1875 -0.226563,0.152344 -0.03906,-0.03906 -0.148437,0 -0.261718,0.109375 -0.113282,0.07813 0,-0.109375 0.222656,-0.375 0.339844,-0.484375 0.640625,-0.710937 0.453125,-0.410156 -0.03906,0.03516 0,0.148437 0.07422,0.1875 0.07422,0.03516 0.07422,0.03516 -0.07422,0.03516 z m 0.710937,-0.824219 c -0.113281,0.152344 -0.226562,0.226563 -0.261718,0.1875 -0.03906,-0.03516 -0.152344,0 -0.261719,0.07422 -0.113281,0.07813 -0.07813,0 0.07422,-0.148437 0.148437,-0.1875 0.375,-0.335938 0.449218,-0.335938 0.1875,0 0.148438,0.03516 0,0.222656 z m 0.375,-0.523437 c -0.03906,0.03516 -0.148437,0.07422 -0.261718,0.113281 -0.152344,0 -0.152344,-0.03906 -0.03906,-0.152344 0.07422,-0.113281 0.1875,-0.148437 0.261719,-0.113281 0.07813,0.03906 0.07813,0.113281 0.03906,0.152344 z m 0.375,-0.636719 c 0,0.109375 -0.113281,0.222656 -0.226562,0.222656 -0.222656,0.03906 -0.222656,0.03906 0,-0.1875 0.265625,-0.300781 0.265625,-0.300781 0.226562,-0.03516 z m 0.601563,-0.601562 c -0.03906,0.03906 -0.113281,0.07422 -0.152344,0.113281 -0.03516,0 -0.148437,0.03516 -0.261719,0.07422 -0.148437,0.113281 -0.148437,0.113281 -0.03906,-0.03906 0.07813,-0.07422 0.265625,-0.183593 0.339844,-0.183593 0.113281,-0.03906 0.1875,0 0.113281,0.03516 z m 0.335937,-0.410156 c 0,0.03516 -0.113281,0.03516 -0.1875,0.03516 -0.113281,0 -0.148437,-0.03516 -0.113281,-0.113282 0.03906,-0.07422 0.300781,-0.03516 0.300781,0.07813 z m -7.3125,-7.648438 c 0.1875,0.07422 0.339844,0.222656 0.414063,0.410156 0.074219,0.148438 0.222656,0.335938 0.335937,0.335938 0.113282,0.03906 0.261719,0.07813 0.300782,0.07813 0.113281,0.03516 0.523437,-0.488281 0.898437,-1.089844 0.453125,-0.671875 1.351563,-1.535156 2.214844,-2.0625 0.375,-0.261719 0.671875,-0.523437 0.671875,-0.597656 0,-0.113281 -0.1875,-0.375 -0.449219,-0.601563 -0.449219,-0.410156 -0.523437,-0.410156 -1.011719,-0.335937 -1.273437,0.1875 -3.636718,1.5 -3.972656,2.175781 -0.113281,0.222656 -0.226562,0.484375 -0.226562,0.5625 0,0.296875 0.527343,1.011719 0.824218,1.125 z m 1.238282,-1.238281 c 0.113281,-0.113281 0.039062,0.03516 -0.148438,0.335937 -0.1875,0.261719 -0.414062,0.527344 -0.453125,0.527344 -0.148437,0 0.300781,-0.640625 0.601563,-0.863281 z m -0.75,0.222656 c 0.1875,-0.148437 0.1875,-0.148437 0.074218,0.113281 -0.148437,0.300782 -0.261718,0.339844 -0.261718,0.152344 0,-0.03906 0.074218,-0.152344 0.1875,-0.265625 z m 0,0"
             id="path7" />
        </g>
      </g>
    </g>
    <g
       fill="#296414"
       fill-opacity="1"
       id="g13"
       transform="translate(-117.45763,-19.220339)">
      <g
         transform="translate(134.61496,74.999998)"
         id="g12">
        <g
           id="g11">
          <path
             d="m 17.882812,-14.882812 c -0.636718,0.9375 -2.773437,4.273437 -2.847656,4.496093 -0.1875,0.414063 0.113282,0.07813 0.75,-0.972656 0.375,-0.636719 1.160156,-1.800781 1.761719,-2.664063 1.050781,-1.535156 1.347656,-2.25 0.335937,-0.859374 z m 12.296876,0.785156 -0.523438,0.488281 0.414062,-0.488281 c 0.636719,-0.785156 0.296876,-0.675782 -0.453124,0.1875 -0.371094,0.449218 -1.121094,1.273437 -1.683594,1.835937 -0.527344,0.5625 -1.277344,1.464844 -1.652344,1.988281 -1.3125,1.726563 -3.410156,4.238282 -4.460938,5.210938 -1.085937,1.050781 -2.0625,1.914062 -2.25,1.914062 -0.148437,0 0.03906,-1.011718 0.449219,-2.175781 0.1875,-0.636719 1.050781,-2.625 1.875,-4.5 1.6875,-3.710937 2.214844,-5.136719 2.4375,-6.484375 0.1875,-1.351562 0.03906,-1.761718 -1.011719,-2.8125 -0.449218,-0.449218 -0.863281,-0.898437 -0.863281,-0.976562 0,-0.296875 -0.523437,-0.636719 -1.046875,-0.636719 -0.453125,0 -0.601562,0.07422 -1.125,0.5625 -0.863281,0.789063 -1.5,1.6875 -3.226562,4.460937 -4.160156,6.710938 -5.847656,9.261719 -5.585938,8.363282 0.148438,-0.414063 0.976563,-2.25 2.25,-4.949219 1.347656,-2.851563 1.761719,-3.9375 1.835938,-4.988281 0.07422,-1.085938 -0.222656,-1.722656 -1.238282,-2.324219 -0.261718,-0.148437 -0.597656,-0.488281 -0.746093,-0.75 -0.339844,-0.523437 -0.714844,-0.675781 -1.277344,-0.5625 -0.898437,0.226563 -3.1875,3.300781 -6.074219,8.25 -1.574218,2.625 -3.109375,5.023437 -3.523437,5.398437 -0.300781,0.261719 -0.300781,0.261719 -0.039063,-0.5625 0.453125,-1.574218 2.0625,-4.949218 3.1875,-6.710937 0.75,-1.199219 1.652344,-3.113281 1.652344,-3.636719 0,-0.261718 -0.078125,-0.449218 -0.113281,-0.449218 -0.074219,0 -0.152344,-0.113282 -0.1875,-0.261719 -0.074219,-0.152344 -0.152344,-0.226563 -0.261719,-0.1875 -0.113281,0.03516 -0.1875,0 -0.1875,-0.07813 0,-0.07422 -0.078125,-0.07422 -0.1875,0.03906 -0.1875,0.148438 -0.1875,0.148438 -0.113281,-0.113281 0.074219,-0.222656 0.035156,-0.261719 -0.1875,-0.261719 -0.152344,0 -0.226563,-0.07422 -0.226563,-0.226562 0,-0.375 -0.484375,-0.75 -0.898437,-0.75 -1.3125,0 -2.886719,1.988281 -5.023438,6.449218 -1.464843,3.039063 -2.175781,5.398438 -2.027343,6.75 C -1.800781,-5.8125 -0.75,-4.160156 0,-4.011719 0.1875,-3.972656 0.449219,-3.75 0.636719,-3.488281 0.863281,-3.1875 1.125,-3 1.3125,-2.925781 c 0.785156,0.152343 1.238281,-0.410157 3.824219,-4.535157 1.722656,-2.738281 4.085937,-6.1875 4.238281,-6.1875 0.035156,0 -0.113281,0.527344 -0.339844,1.238282 C 7.875,-9.074219 7.609375,-6.75 8.210938,-5.363281 c 0.261718,0.5625 0.824218,1.277343 1.050781,1.277343 0.113281,0 0.300781,0.1875 0.488281,0.410157 0.671875,0.902343 1.347656,0.640625 2.585938,-0.9375 0.898437,-1.160157 2.398437,-3.371094 3.5625,-5.285157 0.824218,-1.347656 2.472656,-3.75 2.585937,-3.75 0.03516,0 -0.300781,0.675782 -0.675781,1.5 -1.535156,3.1875 -2.136719,6.5625 -1.460938,8.585938 0.300782,0.976562 1.011719,1.875 1.609375,1.988281 0.226563,0.074219 0.5625,0.300781 0.789063,0.523438 0.523437,0.5625 1.125,0.5625 1.914062,0 1.273438,-0.898438 3.109375,-3.109375 5.695313,-6.824219 0.488281,-0.636719 1.050781,-1.460938 1.277343,-1.796875 0.261719,-0.339844 0.675782,-1.011719 0.9375,-1.464844 0.300782,-0.484375 0.859376,-1.386719 1.3125,-1.984375 0.449219,-0.636718 0.824219,-1.199218 0.824219,-1.3125 0,-0.07422 -0.226562,0.07422 -0.527343,0.335938 z M 6.636719,-17.210938 c 0.222656,-0.371093 0.335937,-0.558593 0.300781,-0.410156 -0.078125,0.335938 -0.675781,1.386719 -0.675781,1.199219 0,-0.07422 0.1875,-0.414063 0.375,-0.789063 z M 4.5,-14.996094 c -0.113281,0.1875 -0.226562,0.335938 -0.261719,0.335938 -0.039062,0 0.035157,-0.148438 0.109375,-0.335938 0.113282,-0.226562 0.226563,-0.375 0.265625,-0.375 0.035157,0 -0.039062,0.148438 -0.113281,0.375 z m 1.050781,-1.800781 c -0.078125,0.148437 -0.226562,0.375 -0.339843,0.488281 l -0.1875,0.261719 0.113281,-0.261719 c 0.074219,-0.113281 0.226562,-0.339844 0.335937,-0.488281 l 0.1875,-0.226563 z m 0.335938,-0.5625 c -0.074219,0.148437 -0.148438,0.261719 -0.1875,0.261719 -0.039063,0 0,-0.113282 0.074219,-0.261719 0.074218,-0.113281 0.148437,-0.222656 0.1875,-0.222656 0.039062,0 0,0.109375 -0.074219,0.222656 z M 0,-9.636719 c 0.601562,-1.722656 2.660156,-5.921875 3.375,-6.785156 0.113281,-0.148437 0.035156,0.07422 -0.152344,0.414063 -0.636718,1.125 -1.949218,3.710937 -2.285156,4.574218 C 0.75,-11.023438 0.375,-10.085938 0.113281,-9.375 -0.449219,-7.796875 -0.523438,-8.023438 0,-9.636719 Z m 1.050781,-0.671875 C 0.789062,-9.636719 0.449219,-8.625 0.300781,-8.023438 0.148438,-7.460938 0.0390625,-7.125 0,-7.273438 0,-8.0625 0.75,-10.386719 1.648438,-12.296875 2.625,-14.433594 4.761719,-17.957031 5.25,-18.332031 c 0.1875,-0.152344 0.1875,-0.113281 -0.039062,0.1875 -1.835938,2.847656 -3.296876,5.660156 -4.160157,7.835937 z m 0.113281,1.085938 c 0.449219,-1.539063 1.871094,-4.425782 3.371094,-6.9375 1.015625,-1.722656 1.3125,-2.136719 1.425782,-2.023438 0,0.03906 -0.300782,0.601563 -0.710938,1.273438 -1.539062,2.476562 -3,5.210937 -3.710938,7.011718 -0.339843,0.863282 -0.527343,1.199219 -0.375,0.675782 z m 0.898438,1.5 C 2.023438,-7.535156 1.988281,-7.5 1.988281,-7.6875 c -0.039062,-0.375 0.597657,-1.949219 1.5,-3.746094 0.449219,-0.9375 0.859375,-1.726562 0.898438,-1.6875 0.039062,0.03516 -0.261719,0.671875 -0.636719,1.421875 -0.375,0.75 -0.902344,1.875 -1.164062,2.550781 -0.261719,0.675782 -0.488282,1.3125 -0.523438,1.425782 z m 0.898438,2.210937 C 2.8125,-5.324219 2.699219,-5.25 2.699219,-5.363281 c 0,-0.035157 0.113281,-0.109375 0.226562,-0.222657 0.1875,-0.152343 0.1875,-0.152343 0.035157,0.074219 z m 0.375,-0.523437 c -0.148438,0.222656 -0.261719,0.296875 -0.261719,0.1875 0,-0.039063 0.113281,-0.113282 0.226562,-0.226563 0.1875,-0.148437 0.1875,-0.148437 0.035157,0.039063 z M 4.085938,-7.5 c -0.1875,0.226562 -0.261719,0.265625 -0.261719,0.1875 0,-0.035156 0.074219,-0.148438 0.1875,-0.222656 C 4.238281,-7.6875 4.238281,-7.6875 4.085938,-7.5 Z m 0.339843,-0.523438 c -0.078125,0.148438 -0.152343,0.261719 -0.1875,0.261719 -0.039062,0 0,-0.113281 0.074219,-0.261719 C 4.386719,-8.136719 4.460938,-8.25 4.5,-8.25 c 0.035156,0 0,0.113281 -0.074219,0.226562 z M 5.023438,-9 c -0.074219,0.152344 -0.148438,0.265625 -0.1875,0.265625 -0.035157,0 0,-0.113281 0.074218,-0.265625 0.078125,-0.148438 0.152344,-0.222656 0.1875,-0.222656 0.039063,0 0,0.074218 -0.074218,0.222656 z m 0.9375,-1.011719 c -0.039063,0.039063 -0.113282,0.113281 -0.148438,0.113281 -0.074219,0 -0.1875,0.039063 -0.261719,0.074219 -0.152343,0.113281 -0.152343,0.074219 0,-0.148437 0.074219,-0.148438 0.1875,-0.1875 0.1875,-0.113282 0.035157,0.03906 0.109375,0.07422 0.183594,0.03906 0.113281,-0.07422 0.113281,-0.03906 0.039063,0.03516 z m 14.773437,1.5 c -0.03906,0.113281 -0.113281,0.152344 -0.113281,0.074219 0,-0.074219 0.07422,-0.222656 0.113281,-0.296875 0.07422,-0.113281 0.148437,-0.152344 0.148437,-0.078125 0,0.078125 -0.07422,0.1875 -0.148437,0.300781 z m 2.0625,-4.722656 c 0.03516,0 -0.07813,0.335937 -0.1875,0.675781 -0.265625,0.636719 -1.761719,3.746094 -1.6875,3.484375 0.03516,-0.222656 1.835937,-4.199219 1.875,-4.160156 z m -9.335937,5.097656 c 0.222656,-0.1875 0.222656,-0.148437 0.07422,0.039063 -0.1875,0.1875 -0.261718,0.261718 -0.261718,0.148437 0,0 0.07422,-0.113281 0.1875,-0.1875 z m -0.5625,0.75 c 0.335937,-0.449219 0.375,-0.488281 0.300781,-0.148437 -0.03906,0.035156 -0.03906,0.074218 -0.03906,0.074218 l -0.261718,0.261719 -0.300782,0.226563 z m 1.273437,-7.421875 c 0.1875,-0.449218 0.375,-0.789062 0.414063,-0.789062 0.07422,0.113281 -0.640626,1.800781 -1.613282,3.789062 -0.488281,1.046875 -1.085937,2.324219 -1.3125,2.847656 -0.226562,0.488282 -0.414062,0.898438 -0.449218,0.9375 -0.226563,0.261719 0.597656,-1.6875 1.761718,-4.160156 0.488282,-0.976562 1.011719,-2.175781 1.199219,-2.625 z m -0.710937,-1.277344 c 0.03516,0.03906 -0.449219,1.203126 -1.050782,2.550782 -0.636718,1.386718 -1.164062,2.550781 -1.164062,2.550781 -0.148438,0.148437 0,-0.261719 0.789062,-2.027344 0.488282,-1.085937 1.011719,-2.210937 1.125,-2.511719 0.148438,-0.335937 0.300782,-0.5625 0.300782,-0.5625 z m -0.863282,-0.859374 c 0.03906,0.03516 -0.300781,0.898437 -0.75,1.910156 -0.449218,0.976562 -1.085937,2.511718 -1.425781,3.335937 -0.335937,0.863281 -0.636719,1.578125 -0.671875,1.578125 -0.226562,0.261719 0.597656,-1.914062 1.535156,-4.125 1.011719,-2.324218 1.238282,-2.777344 1.3125,-2.699218 z M 9.1875,-15.410156 c 0.1875,-0.148438 0.1875,-0.148438 0.035156,0.07422 -0.148437,0.1875 -0.261718,0.265626 -0.261718,0.152344 0,-0.03906 0.113281,-0.113281 0.226562,-0.226562 z m -0.488281,0.601562 c 0.113281,-0.07422 0.035156,0.113282 -0.152344,0.375 -0.1875,0.300782 -0.375,0.523438 -0.410156,0.523438 -0.074219,0 0.375,-0.75 0.5625,-0.898438 z m -0.75,1.125 c 0.1875,-0.152344 0.1875,-0.152344 0.035156,0.03516 -0.148437,0.226563 -0.261719,0.300782 -0.261719,0.1875 0,-0.03516 0.113282,-0.113281 0.226563,-0.222656 z m -1.613281,2.585938 c -0.039063,0 -0.039063,-0.113282 0.039062,-0.226563 0.074219,-0.148437 0.1875,-0.261719 0.222656,-0.261719 0,0 0,0.113282 -0.074218,0.261719 -0.074219,0.113281 -0.1875,0.226563 -0.1875,0.226563 z M 6.75,-11.210938 c -0.078125,0.152344 -0.152344,0.261719 -0.1875,0.261719 -0.039062,0 0,-0.109375 0.074219,-0.261719 0.074219,-0.113281 0.148437,-0.222656 0.1875,-0.222656 0.035156,0 0,0.109375 -0.074219,0.222656 z m 0.375,-0.597656 c -0.152344,0.296875 -0.265625,0.296875 -0.152344,0.03516 0.074219,-0.1875 0.039063,-0.222656 -0.148437,-0.07422 -0.152344,0.148437 -0.1875,0.148437 -0.113281,0 0.039062,-0.113282 0.148437,-0.1875 0.300781,-0.1875 0.1875,0 0.1875,0.07422 0.113281,0.226562 z m 0.9375,-1.425781 c -0.339844,0.488281 -0.5625,0.710937 -0.527344,0.5625 0.074219,-0.300781 0.074219,-0.300781 -0.113281,-0.07422 -0.109375,0.148438 -0.148437,0.296875 -0.109375,0.410156 0.035156,0.07422 0.035156,0.152344 0.035156,0.152344 -0.300781,-0.113281 -0.300781,-0.1875 -0.035156,-0.640625 0.335938,-0.484375 0.449219,-0.597656 0.335938,-0.296875 -0.148438,0.410156 0.113281,0.148438 0.601562,-0.5625 0.5625,-0.863281 2.285156,-3.039062 2.398438,-3.039062 0.03516,0 -0.07422,0.1875 -0.261719,0.375 -0.75,0.902344 -1.761719,2.324218 -2.324219,3.113282 z m 1.984375,3.972656 c -0.335937,0.976563 -0.5625,1.574219 -0.523437,1.3125 0.226562,-1.386719 1.535156,-4.722656 3.523437,-9.035156 0.152344,-0.300781 0.261719,-0.449219 0.300781,-0.335937 0.03906,0.07422 -0.5625,1.535156 -1.3125,3.222656 -0.75,1.6875 -1.648437,3.863281 -1.988281,4.835937 z m 0.9375,-1.347656 c 0.07422,-0.152344 0.113281,-0.226563 0.152344,-0.1875 0.03516,0.07422 0,0.148437 -0.07813,0.222656 -0.109375,0.152344 -0.109375,0.113281 -0.07422,-0.03516 z m 1.539063,4.421875 c -0.07422,0.113281 -0.414063,0.488281 -0.75,0.863281 l -0.601563,0.675781 0.675781,-0.863281 c 0.675782,-0.863281 0.9375,-1.125 0.675782,-0.675781 z m 0.03516,-0.5625 c -0.1875,0.1875 -0.261719,0.265625 -0.261719,0.152344 0,0 0.07422,-0.113282 0.1875,-0.1875 0.1875,-0.152344 0.226563,-0.152344 0.07422,0.035156 z m 0.339844,0 c -0.07422,0.113281 -0.1875,0.226562 -0.1875,0.226562 -0.113282,0 -0.03906,-0.113281 0.148437,-0.261718 0.1875,-0.152344 0.1875,-0.152344 0.03906,0.035156 z m 0.898437,-1.3125 C 13.496098,-7.5 12.97266,-6.898438 13.085942,-7.199219 l 0.07422,-0.222656 c 0.03906,0 0.07422,-0.039063 0.1875,-0.152344 0.113282,-0.148437 0.335938,-0.410156 0.449219,-0.5625 0.1875,-0.300781 0.1875,-0.300781 0,0.074219 z m 1.3125,-2.023438 c -0.710937,1.199219 -1.164063,1.800782 -1.011719,1.386719 0.07422,-0.222656 0.03516,-0.222656 -0.152344,-0.035156 -0.222656,0.148437 -0.222656,0.148437 -0.07422,-0.113281 0.152344,-0.300782 0.414062,-0.488282 0.300781,-0.226563 -0.148437,0.375 0.03906,0.1875 0.449219,-0.410156 0.226562,-0.339844 0.375,-0.636719 0.339844,-0.675781 -0.03906,-0.03906 -0.1875,0.113281 -0.339844,0.375 -0.14844,0.222656 -0.300784,0.410156 -0.33594,0.410156 -0.03906,0 0,-0.109375 0.113282,-0.261719 0.109374,-0.148437 0.5625,-0.898437 1.011718,-1.648437 0.488282,-0.710938 1.347656,-2.0625 1.949219,-2.960938 0.5625,-0.902344 1.011719,-1.6875 0.972656,-1.761718 -0.03516,-0.07813 -0.03516,-0.113282 0.03906,-0.07813 0.07422,0.03906 0.414062,-0.261718 0.75,-0.710937 0.300781,-0.414063 0.636718,-0.824219 0.75,-0.824219 0.07422,-0.03906 -0.1875,0.335938 -0.601563,0.824219 -0.410156,0.523437 -0.710937,1.011719 -0.710937,1.085937 0,0.07813 0.148437,-0.07422 0.375,-0.335937 0.226562,-0.261719 0.636718,-0.710937 0.898437,-0.976563 0.453125,-0.484374 0.453125,-0.484374 -0.07422,0.1875 -1.160156,1.425782 -3.109374,4.277344 -4.648437,6.75 z m 2.398437,4.011719 c -0.109374,0.523438 -0.222656,0.976563 -0.261718,0.976563 -0.222656,0.222656 0.300781,-2.0625 0.75,-3.414063 0.226562,-0.675781 0.976562,-2.398437 1.648437,-3.859375 0.640625,-1.425781 1.390625,-3.039062 1.613281,-3.5625 0.488282,-1.164062 0.675782,-1.464844 0.375,-0.5625 -0.335937,1.011719 -1.199218,3 -1.875,4.347656 -1.125,2.214844 -1.875,4.3125 -2.25,6.074219 z m 0.375,0.675781 c -0.222656,1.3125 -0.375,1.574219 -0.261718,0.449219 0.1875,-1.761719 0.898437,-3.972656 2.175781,-6.597656 1.125,-2.363281 2.136719,-4.613281 2.285156,-5.136719 0.113281,-0.226562 0.1875,-0.414062 0.226563,-0.375 0.1875,0.1875 -0.824219,2.625 -2.398438,5.847656 -1.015625,2.101563 -1.765625,4.273438 -2.027344,5.8125 z m 0.375,0.597657 c -0.03516,0.078125 -0.07422,0.039062 -0.07422,-0.148438 0,-0.148437 0.03906,-0.226562 0.07422,-0.148437 0.03906,0.074218 0.03906,0.222656 0,0.296875 z m 0.375,-1.496094 c -0.1875,0.558594 -0.335937,0.972656 -0.335937,0.859375 0,-0.300781 0.5625,-2.171875 0.972656,-3.261719 0.414063,-1.085937 2.25,-4.875 2.289063,-4.796875 0.07422,0.07422 -0.523438,1.460938 -0.976563,2.398438 -0.222656,0.449218 -0.671875,1.460937 -1.046875,2.285156 -0.339844,0.828125 -0.75,1.953125 -0.902344,2.515625 z m 0.601563,1.574219 c 0.222656,-0.902344 0.898437,-2.8125 0.972656,-2.738282 0.03906,0 -0.03516,0.261719 -0.148437,0.523438 -0.113282,0.265625 -0.375,1.089844 -0.601563,1.875 -0.410156,1.464844 -0.5625,1.652344 -0.222656,0.339844 z m 3.484375,0.1875 c -0.07422,0.109375 -0.1875,0.1875 -0.1875,0.1875 -0.109375,0 -0.03516,-0.078125 0.152344,-0.226563 0.1875,-0.1875 0.1875,-0.148437 0.03516,0.039063 z M 23.507812,-5.4375 c -0.113281,0.152344 -0.261718,0.261719 -0.261718,0.261719 -0.03906,0 0.03516,-0.109375 0.148437,-0.261719 0.113281,-0.148438 0.261719,-0.261719 0.261719,-0.261719 0.03906,0 -0.03516,0.113281 -0.148438,0.261719 z m 0.488282,-0.597656 c -0.113282,0.113281 -0.226563,0.222656 -0.261719,0.222656 -0.03906,0 0.03516,-0.109375 0.148437,-0.222656 0.113282,-0.152344 0.261719,-0.261719 0.300782,-0.261719 0,0 -0.03906,0.109375 -0.1875,0.261719 z m 1.050781,-1.351563 c -0.152344,0.226563 -0.226563,0.300781 -0.226563,0.1875 0,-0.035156 0.07422,-0.113281 0.1875,-0.222656 0.1875,-0.152344 0.226563,-0.152344 0.03906,0.035156 z M 25.417969,-7.875 c -0.148438,0.226562 -0.261719,0.300781 -0.261719,0.1875 0,-0.035156 0.113281,-0.109375 0.226562,-0.222656 0.1875,-0.152344 0.1875,-0.152344 0.03516,0.035156 z m 0.152343,-0.261719 c -0.03906,0 0.07422,-0.148437 0.222657,-0.375 0.152343,-0.1875 0.265625,-0.375 0.300781,-0.375 0.03906,0 -0.03516,0.1875 -0.1875,0.375 -0.148438,0.226563 -0.300781,0.375 -0.335938,0.375 z m 0.710938,-0.449219 -0.300781,0.261719 0.226562,-0.261719 C 26.433594,-8.847656 26.433594,-8.921875 26.28125,-9 c -0.113281,-0.074219 -0.148438,-0.109375 -0.03516,-0.109375 0.07422,0 0.1875,0.035156 0.222656,0.109375 0.03906,0.078125 -0.03516,0.265625 -0.1875,0.414062 z m 1.089844,-1.5 c -0.113282,0.226563 -0.488282,0.5625 -0.488282,0.414063 0,-0.039063 -0.07422,0 -0.1875,0.074219 -0.113281,0.113281 -0.07422,-0.039063 0.113282,-0.261719 0.335937,-0.449219 0.785156,-0.636719 0.5625,-0.226563 z m 0.484375,-0.675781 c -0.148438,0.152344 -0.296875,0.265625 -0.410157,0.265625 -0.152343,0 -0.152343,-0.03906 -0.03906,-0.1875 0.07422,-0.07813 0.152344,-0.113281 0.1875,-0.113281 0.03906,0.03516 0.152344,0 0.261719,-0.07422 0.152343,-0.113281 0.152343,-0.07813 0,0.109375 z m 0.488281,-0.671875 c -0.113281,0.148438 -0.261719,0.296875 -0.300781,0.296875 -0.07422,0 -0.1875,0.03906 -0.261719,0.113281 -0.113281,0.03906 -0.113281,-0.03516 0.03906,-0.222656 0.222657,-0.375 0.300782,-0.414062 0.222657,-0.113281 -0.03516,0.148437 0,0.113281 0.1875,-0.07422 l 0.300781,-0.339844 z m 0.339844,-0.675781 c 0,0.1875 -0.03906,0.222656 -0.113282,0.03516 -0.07422,-0.03516 -0.03906,-0.109375 0,-0.148437 0.07422,-0.03906 0.113282,0 0.113282,0.113281 z m 0.484375,-0.636719 c 0,0.222656 -0.03516,0.222656 -0.109375,0.07422 -0.03906,-0.07422 -0.03906,-0.152344 0.03516,-0.1875 0.03906,-0.03906 0.07422,0.03516 0.07422,0.113281 z m 0,0"
             id="path10" />
        </g>
      </g>
    </g>
    <g
       fill="#296414"
       fill-opacity="1"
       id="g16"
       transform="translate(-117.45763,-19.220339)">
      <g
         transform="translate(163.18107,74.999998)"
         id="g15">
        <g
           id="g14">
          <path
             d="m 11.773438,-19.570312 c -0.226563,-0.152344 -0.5625,-0.449219 -0.75,-0.675782 -0.449219,-0.675781 -1.199219,-1.011718 -2.210938,-1.011718 -1.125,0 -2.175781,0.5625 -2.738281,1.386718 -0.375,0.5625 -0.414063,0.710938 -0.414063,1.5 0,0.9375 0.152344,1.347656 0.675782,1.535156 0.148437,0.07813 0.300781,0.1875 0.300781,0.300782 0,0.113281 0.113281,0.261718 0.261719,0.339844 0.1875,0.109374 0.300781,0.07422 0.523437,-0.113282 0.152344,-0.152344 0.339844,-0.261718 0.453125,-0.261718 0.074219,0 0.5625,-0.1875 1.046875,-0.414063 1.5,-0.75 1.425781,-0.75 1.3125,0.226563 -0.113281,1.3125 -0.710937,3.484374 -1.273437,4.761718 -0.9375,2.136719 -2.925782,4.835938 -4.3125,5.921875 -0.824219,0.601563 -1.875,1.164063 -2.210938,1.164063 -0.300781,0 -0.375,-0.789063 -0.226562,-2.0625 0.261718,-2.363282 1.011718,-4.273438 3.074218,-7.6875 0.5625,-0.898438 0.789063,-1.6875 0.488282,-1.5 -0.074219,0.03906 -0.113282,0 -0.113282,-0.113282 0,-0.109374 -0.074218,-0.1875 -0.148437,-0.1875 -0.074219,0 -0.335938,-0.222656 -0.601563,-0.484374 -0.5625,-0.5625 -0.972656,-0.636719 -1.796875,-0.265626 -0.9375,0.414063 -1.914062,1.5 -2.964843,3.265626 -1.5,2.511718 -2.023438,5.882812 -1.234376,7.871093 0.375,0.9375 1.199219,2.023438 1.761719,2.324219 0.222657,0.152344 0.597657,0.449219 0.785157,0.675781 0.1875,0.261719 0.601562,0.5625 0.902343,0.710938 1.535157,0.789062 3.671875,-0.261719 6.035157,-3 2.625,-2.996094 4.425781,-6.859375 4.835937,-10.234375 0.113281,-0.898438 0.03906,-1.984375 -0.1875,-2.511719 -0.148437,-0.449219 -0.863281,-1.238281 -1.273437,-1.460937 z M 6.5625,-17.433594 c -0.113281,0 -0.039062,-0.1875 0.1875,-0.488281 l 0.261719,-0.335937 -0.1875,0.410156 c -0.113281,0.226562 -0.226563,0.414062 -0.261719,0.414062 z m 0.449219,0 c -0.074219,0.113282 -0.1875,0.222656 -0.226563,0.222656 0,0 0,-0.109374 0.074219,-0.222656 0.078125,-0.148437 0.1875,-0.261718 0.1875,-0.261718 0.039063,0 0.039063,0.113281 -0.035156,0.261718 z M 0.1875,-10.535156 c 0.113281,-0.636719 1.050781,-2.738282 1.238281,-2.738282 0.035157,0 -0.074219,0.226563 -0.226562,0.527344 -0.113281,0.261719 -0.449219,0.972656 -0.675781,1.535156 -0.222657,0.601563 -0.375,0.902344 -0.335938,0.675782 z m 0.601562,0.148437 c -0.265624,0.714844 -0.414062,1.011719 -0.375,0.75 0.222657,-1.386719 1.347657,-3.859375 2.324219,-4.984375 l 0.375,-0.414062 -0.300781,0.488281 c -0.152344,0.261719 -0.375,0.601563 -0.488281,0.789063 -0.113281,0.148437 -0.410157,0.710937 -0.675781,1.199218 -0.222657,0.523438 -0.636719,1.5 -0.859376,2.171875 z m 1.046876,-1.648437 c 0.527343,-1.085938 1.5,-2.660156 2.027343,-3.261719 0.449219,-0.488281 0.449219,-0.449219 -0.078125,0.300781 -0.296875,0.449219 -0.75,1.125 -0.972656,1.535156 -0.226562,0.375 -0.636719,1.199219 -0.9375,1.761719 -0.5625,1.164063 -0.601562,0.9375 -0.039062,-0.335937 z m 0.300781,2.324218 c 0.148437,-0.449218 0.601562,-1.5 0.636719,-1.425781 0.039062,0 -0.113282,0.375 -0.261719,0.828125 -0.335938,0.824219 -0.523438,1.121094 -0.375,0.597656 z m 8.660156,-4.5 c 0.03906,-0.148437 0.03906,-0.148437 0.07422,-0.07422 0.03906,0.113281 0.03906,0.1875 0,0.261718 -0.03516,0.03906 -0.07422,-0.03516 -0.07422,-0.1875 z m 0,0.414063 c 0,0.07422 -0.148437,0.636719 -0.375,1.199219 -0.300781,0.863281 -0.488281,1.199218 -0.488281,1.011718 0,-0.113281 0.863281,-2.324218 0.863281,-2.210937 z M 8.097656,-6.972656 C 7.949219,-6.785156 7.875,-6.710938 7.875,-6.824219 c 0,0 0.074219,-0.113281 0.1875,-0.1875 0.1875,-0.148437 0.222656,-0.148437 0.035156,0.039063 z m 2.925782,-4.914063 c -0.414063,1.050781 -1.011719,2.214844 -1.648438,3.152344 -0.527344,0.785156 -1.277344,1.722656 -1.050781,1.347656 0.035156,-0.113281 0.375,-0.597656 0.710937,-1.085937 0.636719,-0.976563 1.386719,-2.363282 1.875,-3.601563 0.414063,-0.9375 0.449219,-0.824219 0.113282,0.1875 z m 0.07422,-1.535156 c -0.148437,0.597656 -0.675781,1.800781 -1.085937,2.660156 -0.449219,0.902344 -0.902344,1.726563 -1.050781,1.914063 -0.1875,0.1875 -0.113282,0.035156 0.113281,-0.375 0.675781,-1.199219 1.234375,-2.476563 1.796875,-4.125 0.601562,-1.722656 0.714844,-1.800782 0.226562,-0.07422 z m 0,0"
             id="path13" />
        </g>
      </g>
    </g>
    <g
       fill="#296414"
       fill-opacity="1"
       id="g19"
       transform="translate(-117.45763,-19.220339)">
      <g
         transform="translate(74.157352,100.5)"
         id="g18">
        <g
           id="g17">
          <path
             d="m 2.097656,-3.75 c 0.601563,1.800781 1.988282,3.523438 3.339844,4.125 0.375,0.1875 0.972656,0.523438 1.347656,0.789062 0.601563,0.449219 1.351563,0.75 2.101563,0.898438 0.523437,0.113281 2.285156,-0.039062 2.886719,-0.226562 1.835937,-0.636719 4.835937,-3.261719 7.535156,-6.597657 1.011718,-1.238281 2.550781,-3.523437 3.035156,-4.5 0.152344,-0.300781 0.640625,-1.046875 1.125,-1.648437 0.75,-1.011719 1.089844,-1.6875 0.714844,-1.460938 -0.03906,0.03516 -0.113282,0 -0.152344,-0.113281 -0.03516,-0.07422 -0.5625,0.335937 -1.273438,1.011719 -1.722656,1.6875 -5.8125,5.136718 -7.984374,6.785156 C 11.585938,-2.285156 9.972656,-1.5 7.875,-1.351562 L 6.9375,-1.273438 6.710938,-1.726562 C 6,-3.074219 5.773438,-5.511719 6.109375,-7.5 c 0.714844,-3.898438 3.453125,-9.523438 6.675781,-13.683594 1.910156,-2.472656 4.761719,-5.210937 6.898438,-6.671875 0.863281,-0.5625 2.8125,-1.574219 3.488281,-1.800781 0.296875,-0.07422 0.296875,-0.03906 0.222656,0.410156 -0.300781,1.613282 -1.574219,4.726563 -2.960937,7.089844 -1.726563,2.996094 -1.949219,3.558594 -1.613282,4.273438 0.113282,0.261718 0.261719,0.335937 0.675782,0.335937 0.148437,0 0.148437,0.03906 0.03906,0.148437 -0.226562,0.265626 0.03516,0.488282 0.5625,0.453126 1.609375,-0.03906 5.433594,-5.25 6.710938,-9.148438 0.824218,-2.4375 0.410156,-4.460938 -1.164063,-5.699219 -0.261719,-0.226562 -0.597656,-0.601562 -0.710937,-0.863281 -0.527344,-1.011719 -1.386719,-1.425781 -2.8125,-1.3125 -2.851563,0.1875 -6.523438,2.476562 -10.3125,6.449219 C 8.625,-24.257812 6.484375,-21.109375 4.273438,-16.570312 1.613281,-11.058594 0.9375,-7.160156 2.097656,-3.75 Z m 20.359375,-6.523438 c 0.152344,-0.1875 0.226563,-0.410156 0.1875,-0.449218 -0.03516,-0.07422 0,-0.148438 0.07422,-0.1875 0.03906,-0.03906 0.152344,0 0.152344,0.03906 0.03516,0.07422 -0.07422,0.296875 -0.300782,0.523438 -0.261718,0.300781 -0.300781,0.335937 -0.113282,0.07422 z m -0.375,0.523438 c 0.1875,-0.148438 0.1875,-0.148438 0.03906,0.039062 -0.152344,0.1875 -0.261719,0.261719 -0.261719,0.148438 0,0 0.109375,-0.109375 0.222656,-0.1875 z m -0.710937,-9.785156 c -0.789063,0.976562 -1.574219,1.875 -1.574219,1.765625 0,-0.03906 0.300781,-0.453125 0.675781,-0.902344 1.121094,-1.3125 2.097656,-2.738281 2.921875,-4.234375 1.011719,-1.726562 1.089844,-1.875 0.789063,-1.125 -0.527344,1.273438 -1.6875,3.109375 -2.8125,4.496094 z m 3,-2.511719 c -0.113282,0.1875 -0.1875,0.226563 -0.1875,0.07813 0,-0.07813 0.07422,-0.152344 0.113281,-0.226562 0.07422,-0.03906 0.109375,0.03906 0.07422,0.148437 z m 1.085937,-2.4375 c 0.148438,-0.261719 0.261719,-0.449219 0.300781,-0.410156 0,0.03516 -0.226562,0.5625 -0.523437,1.199219 -0.300781,0.636718 -0.640625,1.199218 -0.714844,1.273437 -0.03516,0.07813 0.07422,-0.261719 0.300781,-0.75 0.261719,-0.449219 0.523438,-1.046875 0.636719,-1.3125 z M 24.78125,-27.03125 c 0.07813,0.222656 -0.710938,2.097656 -1.386719,3.410156 -0.75,1.425782 -1.648437,2.773438 -3.074219,4.6875 -1.085937,1.460938 -1.050781,1.425782 -1.050781,1.273438 0,-0.03516 0.375,-0.597656 0.863281,-1.199219 1.835938,-2.472656 3.414063,-5.25 4.238282,-7.421875 0.1875,-0.488281 0.375,-0.824219 0.410156,-0.75 z m -0.75,0.5625 c 0.07813,0.07422 -0.523438,1.574219 -1.125,2.773438 -0.335938,0.636718 -0.671875,1.3125 -0.824219,1.460937 -0.113281,0.152344 0.113281,-0.410156 0.5625,-1.273437 0.414063,-0.898438 0.902344,-1.910157 1.050781,-2.324219 0.148438,-0.375 0.300782,-0.675781 0.335938,-0.636719 z M 6.296875,-10.460938 c -0.1875,0.601563 -0.449219,1.5 -0.558594,1.988282 -0.1875,0.898437 -0.300781,1.160156 -0.300781,0.710937 0,-0.488281 1.085938,-3.898437 1.199219,-3.785156 0,0.03516 -0.113281,0.523437 -0.339844,1.085937 z m 0.601563,-1.6875 c 0,0.07422 -0.039063,0.226563 -0.113282,0.300782 -0.035156,0.113281 -0.113281,0.148437 -0.113281,0.07422 0,-0.07422 0.078125,-0.1875 0.113281,-0.300781 0.074219,-0.109375 0.113282,-0.109375 0.113282,-0.07422 z m 0.074218,-2.4375 c -0.1875,0.226563 -0.1875,0.226563 -0.035156,-0.07422 0.1875,-0.375 0.222656,-0.410156 0.222656,-0.261719 0,0.03906 -0.074218,0.226563 -0.1875,0.335937 z m 1.125,-2.136718 c -0.1875,0.339844 -0.335937,0.601562 -0.375,0.601562 -0.035156,0 0.074219,-0.261718 0.226563,-0.601562 0.1875,-0.335938 0.335937,-0.636719 0.375,-0.636719 0.035156,0 -0.074219,0.300781 -0.226563,0.636719 z M 8.625,-17.695312 c -0.078125,0.113281 -0.152344,0.222656 -0.1875,0.222656 -0.039062,0 0,-0.109375 0.074219,-0.222656 0.074219,-0.152344 0.148437,-0.261719 0.1875,-0.261719 0.035156,0 0,0.109375 -0.074219,0.261719 z m 7.195312,-9.824219 c 0.1875,-0.148438 0.226563,-0.148438 0.03906,0.03906 -0.07422,0.109375 -0.1875,0.222657 -0.1875,0.222657 -0.113281,0 -0.03906,-0.113282 0.148437,-0.261719 z m -0.710937,0.675781 c 0.261719,-0.1875 -0.113281,0.222656 -0.789063,0.9375 -1.683593,1.722656 -2.773437,3.035156 -4.085937,4.949219 -1.609375,2.398437 -3,4.949219 -4.199219,7.722656 -0.222656,0.488281 -0.636718,1.648437 -0.972656,2.625 -0.636719,1.910156 -0.75,2.0625 -0.339844,0.449219 0.75,-2.925782 3.113282,-7.6875 5.476563,-11.097656 1.273437,-1.835938 3.972656,-4.910157 4.910156,-5.585938 z m -4.011719,3.484375 C 7.6875,-18.933594 4.648438,-12.746094 3.9375,-8.660156 c -0.300781,1.6875 -0.449219,2.097656 -0.375,1.050781 0.1875,-2.402344 1.050781,-5.027344 2.8125,-8.511719 1.3125,-2.585937 3.558594,-6.074218 4.910156,-7.535156 0.449219,-0.488281 0.414063,-0.453125 -0.1875,0.296875 z m -4.050781,5.027344 c 0.078125,-0.113281 0.152344,-0.226563 0.1875,-0.226563 0.039063,0 0,0.113282 -0.074219,0.226563 -0.074218,0.148437 -0.148437,0.261719 -0.1875,0.261719 -0.035156,0 0,-0.113282 0.074219,-0.261719 z M 6.5625,-17.472656 c 0.109375,-0.261719 0.261719,-0.484375 0.296875,-0.484375 0.039063,0 -0.035156,0.222656 -0.1875,0.484375 -0.148437,0.261718 -0.261719,0.488281 -0.296875,0.488281 -0.039062,0 0.035156,-0.226563 0.1875,-0.488281 z m -1.6875,3.488281 c 0.597656,-1.386719 1.421875,-2.960937 1.421875,-2.851563 0,0.07813 -0.148437,0.414063 -0.335937,0.828126 C 4.949219,-14.058594 4.050781,-11.546875 3.5625,-9.5625 3.375,-8.886719 3.222656,-8.210938 3.222656,-8.023438 3.148438,-7.796875 3.148438,-7.796875 3.148438,-8.136719 3.113281,-9.148438 3.863281,-11.699219 4.875,-13.984375 Z m 0,0"
             id="path16" />
        </g>
      </g>
    </g>
    <g
       fill="#296414"
       fill-opacity="1"
       id="g22"
       transform="translate(-117.45763,-19.220339)">
      <g
         transform="translate(102.72346,100.5)"
         id="g21">
        <g
           id="g20">
          <path
             d="m 11.773438,-19.570312 c -0.226563,-0.152344 -0.5625,-0.449219 -0.75,-0.675782 -0.449219,-0.675781 -1.199219,-1.011718 -2.210938,-1.011718 -1.125,0 -2.175781,0.5625 -2.738281,1.386718 -0.375,0.5625 -0.414063,0.710938 -0.414063,1.5 0,0.9375 0.152344,1.347656 0.675782,1.535156 0.148437,0.07813 0.300781,0.1875 0.300781,0.300782 0,0.113281 0.113281,0.261718 0.261719,0.339844 0.1875,0.109374 0.300781,0.07422 0.523437,-0.113282 0.152344,-0.152344 0.339844,-0.261718 0.453125,-0.261718 0.074219,0 0.5625,-0.1875 1.046875,-0.414063 1.5,-0.75 1.425781,-0.75 1.3125,0.226563 -0.113281,1.3125 -0.710937,3.484374 -1.273437,4.761718 -0.9375,2.136719 -2.925782,4.835938 -4.3125,5.921875 -0.824219,0.601563 -1.875,1.164063 -2.210938,1.164063 -0.300781,0 -0.375,-0.789063 -0.226562,-2.0625 0.261718,-2.363282 1.011718,-4.273438 3.074218,-7.6875 0.5625,-0.898438 0.789063,-1.6875 0.488282,-1.5 -0.074219,0.03906 -0.113282,0 -0.113282,-0.113282 0,-0.109374 -0.074218,-0.1875 -0.148437,-0.1875 -0.074219,0 -0.335938,-0.222656 -0.601563,-0.484374 -0.5625,-0.5625 -0.972656,-0.636719 -1.796875,-0.265626 -0.9375,0.414063 -1.914062,1.5 -2.964843,3.265626 -1.5,2.511718 -2.023438,5.882812 -1.234376,7.871093 0.375,0.9375 1.199219,2.023438 1.761719,2.324219 0.222657,0.152344 0.597657,0.449219 0.785157,0.675781 0.1875,0.261719 0.601562,0.5625 0.902343,0.710938 1.535157,0.789062 3.671875,-0.261719 6.035157,-3 2.625,-2.996094 4.425781,-6.859375 4.835937,-10.234375 0.113281,-0.898438 0.03906,-1.984375 -0.1875,-2.511719 -0.148437,-0.449219 -0.863281,-1.238281 -1.273437,-1.460937 z M 6.5625,-17.433594 c -0.113281,0 -0.039062,-0.1875 0.1875,-0.488281 l 0.261719,-0.335937 -0.1875,0.410156 c -0.113281,0.226562 -0.226563,0.414062 -0.261719,0.414062 z m 0.449219,0 c -0.074219,0.113282 -0.1875,0.222656 -0.226563,0.222656 0,0 0,-0.109374 0.074219,-0.222656 0.078125,-0.148437 0.1875,-0.261718 0.1875,-0.261718 0.039063,0 0.039063,0.113281 -0.035156,0.261718 z M 0.1875,-10.535156 c 0.113281,-0.636719 1.050781,-2.738282 1.238281,-2.738282 0.035157,0 -0.074219,0.226563 -0.226562,0.527344 -0.113281,0.261719 -0.449219,0.972656 -0.675781,1.535156 -0.222657,0.601563 -0.375,0.902344 -0.335938,0.675782 z m 0.601562,0.148437 c -0.265624,0.714844 -0.414062,1.011719 -0.375,0.75 0.222657,-1.386719 1.347657,-3.859375 2.324219,-4.984375 l 0.375,-0.414062 -0.300781,0.488281 c -0.152344,0.261719 -0.375,0.601563 -0.488281,0.789063 -0.113281,0.148437 -0.410157,0.710937 -0.675781,1.199218 -0.222657,0.523438 -0.636719,1.5 -0.859376,2.171875 z m 1.046876,-1.648437 c 0.527343,-1.085938 1.5,-2.660156 2.027343,-3.261719 0.449219,-0.488281 0.449219,-0.449219 -0.078125,0.300781 -0.296875,0.449219 -0.75,1.125 -0.972656,1.535156 -0.226562,0.375 -0.636719,1.199219 -0.9375,1.761719 -0.5625,1.164063 -0.601562,0.9375 -0.039062,-0.335937 z m 0.300781,2.324218 c 0.148437,-0.449218 0.601562,-1.5 0.636719,-1.425781 0.039062,0 -0.113282,0.375 -0.261719,0.828125 -0.335938,0.824219 -0.523438,1.121094 -0.375,0.597656 z m 8.660156,-4.5 c 0.03906,-0.148437 0.03906,-0.148437 0.07422,-0.07422 0.03906,0.113281 0.03906,0.1875 0,0.261718 -0.03516,0.03906 -0.07422,-0.03516 -0.07422,-0.1875 z m 0,0.414063 c 0,0.07422 -0.148437,0.636719 -0.375,1.199219 -0.300781,0.863281 -0.488281,1.199218 -0.488281,1.011718 0,-0.113281 0.863281,-2.324218 0.863281,-2.210937 z M 8.097656,-6.972656 C 7.949219,-6.785156 7.875,-6.710938 7.875,-6.824219 c 0,0 0.074219,-0.113281 0.1875,-0.1875 0.1875,-0.148437 0.222656,-0.148437 0.035156,0.039063 z m 2.925782,-4.914063 c -0.414063,1.050781 -1.011719,2.214844 -1.648438,3.152344 -0.527344,0.785156 -1.277344,1.722656 -1.050781,1.347656 0.035156,-0.113281 0.375,-0.597656 0.710937,-1.085937 0.636719,-0.976563 1.386719,-2.363282 1.875,-3.601563 0.414063,-0.9375 0.449219,-0.824219 0.113282,0.1875 z m 0.07422,-1.535156 c -0.148437,0.597656 -0.675781,1.800781 -1.085937,2.660156 -0.449219,0.902344 -0.902344,1.726563 -1.050781,1.914063 -0.1875,0.1875 -0.113282,0.035156 0.113281,-0.375 0.675781,-1.199219 1.234375,-2.476563 1.796875,-4.125 0.601562,-1.722656 0.714844,-1.800782 0.226562,-0.07422 z m 0,0"
             id="path19" />
        </g>
      </g>
    </g>
    <g
       fill="#296414"
       fill-opacity="1"
       id="g25"
       transform="translate(-117.45763,-19.220339)">
      <g
         transform="translate(116.66913,100.5)"
         id="g24">
        <g
           id="g23">
          <path
             d="m 14.621094,-14.359375 c 0,-0.03906 -0.1875,-0.1875 -0.410156,-0.335937 -0.339844,-0.1875 -0.527344,-0.226563 -0.902344,-0.152344 -1.386719,0.300781 -6.109375,2.625 -8.246094,4.050781 -1.238281,0.824219 -1.5,0.9375 -1.425781,0.710937 0.039062,-0.148437 0.375,-1.011718 0.710937,-1.910156 1.574219,-4.3125 4.914063,-10.761718 7.613282,-14.773437 1.125,-1.726563 1.238281,-1.949219 0.972656,-2.25 -0.07422,-0.148438 -0.222656,-0.261719 -0.261719,-0.261719 -0.07422,0 -0.1875,-0.03906 -0.261719,-0.03906 -0.113281,0 -0.113281,-0.03516 -0.07422,-0.07422 0.03516,-0.03516 -0.03906,-0.1875 -0.152344,-0.300781 -0.109375,-0.109376 -0.261719,-0.296876 -0.335938,-0.449219 -0.335937,-0.597657 -1.5,0 -2.699218,1.425781 -1.613282,1.875 -4.460938,6.484375 -6.113282,9.898438 -2.023437,4.046874 -3.371094,7.910156 -4.273437,11.960937 C -1.460938,-5.773438 -1.5,-5.210938 -1.5,-3.300781 c -0.039062,2.0625 0,2.363281 0.261719,3.113281 0.414062,1.164062 1.125,2.136719 1.800781,2.363281 0.113281,0.035157 0.488281,0.222657 0.789062,0.410157 0.296876,0.226562 0.671876,0.375 0.785157,0.375 C 3.488281,2.960938 6.1875,-0.375 7.125,-3.148438 7.535156,-4.347656 7.648438,-5.285156 7.460938,-6 7.234375,-6.824219 6.972656,-7.085938 5.773438,-7.6875 5.25,-7.949219 4.835938,-8.171875 4.835938,-8.25 4.875,-8.359375 6.75,-9.710938 8.398438,-10.796875 c 1.648437,-1.125 4.761718,-2.886719 5.660156,-3.226563 0.300781,-0.109374 0.5625,-0.261718 0.5625,-0.335937 z M 6.636719,-4.835938 C 6.710938,-4.988281 6.75,-5.023438 6.75,-4.910156 6.75,-4.800781 6.710938,-4.574219 6.636719,-4.425781 6.5625,-4.160156 6.5625,-4.160156 6.5625,-4.347656 6.523438,-4.5 6.597656,-4.6875 6.636719,-4.835938 Z M 6.222656,-4.347656 C 6.261719,-4.535156 6.375,-4.949219 6.410156,-5.210938 6.484375,-5.660156 6.523438,-5.625 6.449219,-5.0625 c 0,0.375 -0.113281,0.75 -0.1875,0.863281 -0.113281,0.1875 -0.113281,0.148438 -0.039063,-0.148437 z M 6.035156,-3.75 c 0.074219,-0.148438 0.113282,-0.148438 0.113282,-0.035156 0,0.074218 -0.039063,0.261718 -0.113282,0.375 -0.148437,0.222656 -0.148437,0 0,-0.339844 z M 6.375,-3.5625 c 0.035156,0.074219 -0.078125,0.375 -0.226562,0.675781 -0.226563,0.488281 -0.375,0.675781 -0.375,0.523438 0,-0.148438 0.601562,-1.347657 0.601562,-1.199219 z m 4.949219,-24.707031 c 0.1875,-0.1875 0.148437,-0.113281 -0.113281,0.300781 -2.0625,2.773438 -5.363282,8.585938 -7.085938,12.410156 -0.527344,1.199219 -1.425781,3.636719 -1.949219,5.25 -0.675781,2.023438 -0.863281,2.511719 -0.75,1.835938 0.300781,-1.5 1.835938,-5.699219 3.296875,-8.773438 1.761719,-3.710937 5.625,-10.199218 6.601563,-11.023437 z M 1.6875,-4.875 c -0.039062,0.074219 -0.039062,0.039062 -0.039062,-0.148438 0,-0.152343 0,-0.226562 0.039062,-0.152343 0.039062,0.078125 0.039062,0.226562 0,0.300781 z m 8.734375,-23.019531 c 1.011719,-1.238281 1.011719,-1.125 0,0.226562 -2.511719,3.335938 -5.773437,9.296875 -7.496094,13.683594 -0.714843,1.835937 -1.6875,4.722656 -2.0625,6.109375 -0.039062,0.265625 -0.1875,0.527344 -0.226562,0.601562 -0.1875,0.074219 -0.113281,-0.148437 0.636719,-2.625 0.300781,-1.085937 0.9375,-2.886718 1.386718,-3.972656 1.875,-4.6875 5.511719,-11.25 7.761719,-14.023437 z m -2.4375,2.925781 c 0.078125,-0.152344 0.1875,-0.375 0.300781,-0.488281 l 0.226563,-0.261719 -0.152344,0.261719 c -0.035156,0.113281 -0.1875,0.335937 -0.296875,0.488281 l -0.1875,0.261719 z m -0.710937,1.234375 c 0.039062,-0.03516 0,0.113281 -0.148438,0.339844 -0.152344,0.261719 -0.265625,0.449219 -0.300781,0.449219 -0.113281,0 0.300781,-0.710938 0.449219,-0.789063 z m -2.472657,4.238281 c 0.074219,-0.148437 0.148438,-0.261718 0.1875,-0.261718 0.035157,0 0,0.113281 -0.078125,0.261718 -0.074218,0.113282 -0.148437,0.226563 -0.1875,0.226563 -0.035156,0 0,-0.113281 0.078125,-0.226563 z m -0.339843,0.710938 c 0.152343,-0.375 0.226562,-0.449219 0.226562,-0.261719 0,0.03906 -0.074219,0.226563 -0.1875,0.339844 -0.1875,0.222656 -0.1875,0.222656 -0.039062,-0.07813 z m -0.261719,0.488281 c 0.039062,-0.07422 0.113281,-0.113281 0.113281,-0.03516 0,0.07422 -0.074219,0.1875 -0.113281,0.296875 -0.074219,0.113281 -0.113281,0.113281 -0.113281,0.07813 0,-0.07813 0.039062,-0.226563 0.113281,-0.339844 z m -1.238281,2.773437 c 0.074218,-0.03516 0.074218,0 0.039062,0.113282 -0.074219,0.226562 -0.152344,0.261718 -0.152344,0.07422 0,-0.03516 0.039063,-0.148437 0.113282,-0.1875 z m -3.375,11.097657 c 0.078124,-1.046875 0.789062,-3.972657 1.425781,-5.921875 0.5625,-1.800782 1.6875,-4.800782 1.761719,-4.722656 0.039062,0.03516 -0.113282,0.484374 -0.300782,0.972656 -0.597656,1.425781 -1.535156,4.3125 -2.023437,6.113281 -0.222657,0.9375 -0.5234378,2.285156 -0.675781,3.035156 -0.1875,1.085938 -0.222657,1.199219 -0.1875,0.523438 z m 0.300781,1.613281 c -0.113281,0.789062 -0.113281,0.789062 -0.035157,-0.300781 0.0742192,-1.386719 0.410157,-3.371094 0.5625,-3.371094 0.074219,0 0.074219,0.148437 0.035157,0.375 -0.035157,0.222656 -0.148438,0.898437 -0.261719,1.460937 -0.074219,0.5625 -0.2265625,1.386719 -0.300781,1.835938 z m 0.5625,-0.898438 C 0.414062,-3.675781 0.375,-3.75 0.414062,-3.863281 c 0,-0.148438 0,-0.1875 0.035157,-0.074219 0.039062,0.074219 0.039062,0.1875 0,0.226562 z m 0.375,-1.726562 C 0.710938,-5.023438 0.636719,-4.574219 0.601562,-4.425781 0.5625,-4.125 0.523438,-4.125 0.523438,-4.386719 0.488281,-4.722656 0.75,-5.921875 0.898438,-6.035156 c 0.039062,-0.074219 0,0.1875 -0.074219,0.597656 z M 1.3125,-3.035156 C 1.273438,-2.925781 1.273438,-3 1.273438,-3.1875 c 0,-0.148438 0,-0.222656 0.039062,-0.148438 0.039062,0.074219 0.039062,0.222657 0,0.300782 z m 0.148438,-0.601563 c -0.035157,0.074219 -0.074219,0 -0.074219,-0.148437 0,-0.1875 0.039062,-0.265625 0.074219,-0.152344 0.039062,0.074219 0.039062,0.226562 0,0.300781 z M 1.5,-4.425781 c 0,-0.148438 0.039062,-0.222657 0.074219,-0.148438 0.039062,0.113281 0.039062,0.226563 0,0.335938 -0.035157,0.078125 -0.074219,0 -0.074219,-0.1875 z m 3.5625,-2.171875 0.488281,-0.039063 v 0.675781 c 0,0.824219 -0.375,2.0625 -0.976562,3.222657 C 4.011719,-1.574219 3.523438,-0.9375 2.625,0.0390625 2.175781,0.488281 1.761719,0.863281 1.726562,0.863281 c -0.1875,0 -0.265624,-1.425781 -0.113281,-2.589843 0.148438,-1.496094 0.597657,-3.558594 0.785157,-3.746094 0.261718,-0.226563 2.214843,-1.050782 2.664062,-1.125 z m 0,0"
             id="path22" />
        </g>
      </g>
    </g>
    <g
       fill="#296414"
       fill-opacity="1"
       id="g28"
       transform="translate(-117.45763,-19.220339)">
      <g
         transform="translate(129.11525,100.5)"
         id="g27">
        <g
           id="g26">
          <path
             d="m 14.621094,-14.359375 c 0,-0.03906 -0.1875,-0.1875 -0.410156,-0.335937 -0.339844,-0.1875 -0.527344,-0.226563 -0.902344,-0.152344 -1.386719,0.300781 -6.109375,2.625 -8.246094,4.050781 -1.238281,0.824219 -1.5,0.9375 -1.425781,0.710937 0.039062,-0.148437 0.375,-1.011718 0.710937,-1.910156 1.574219,-4.3125 4.914063,-10.761718 7.613282,-14.773437 1.125,-1.726563 1.238281,-1.949219 0.972656,-2.25 -0.07422,-0.148438 -0.222656,-0.261719 -0.261719,-0.261719 -0.07422,0 -0.1875,-0.03906 -0.261719,-0.03906 -0.113281,0 -0.113281,-0.03516 -0.07422,-0.07422 0.03516,-0.03516 -0.03906,-0.1875 -0.152344,-0.300781 -0.109375,-0.109376 -0.261719,-0.296876 -0.335938,-0.449219 -0.335937,-0.597657 -1.5,0 -2.699218,1.425781 -1.613282,1.875 -4.460938,6.484375 -6.113282,9.898438 -2.023437,4.046874 -3.371094,7.910156 -4.273437,11.960937 C -1.460938,-5.773438 -1.5,-5.210938 -1.5,-3.300781 c -0.039062,2.0625 0,2.363281 0.261719,3.113281 0.414062,1.164062 1.125,2.136719 1.800781,2.363281 0.113281,0.035157 0.488281,0.222657 0.789062,0.410157 0.296876,0.226562 0.671876,0.375 0.785157,0.375 C 3.488281,2.960938 6.1875,-0.375 7.125,-3.148438 7.535156,-4.347656 7.648438,-5.285156 7.460938,-6 7.234375,-6.824219 6.972656,-7.085938 5.773438,-7.6875 5.25,-7.949219 4.835938,-8.171875 4.835938,-8.25 4.875,-8.359375 6.75,-9.710938 8.398438,-10.796875 c 1.648437,-1.125 4.761718,-2.886719 5.660156,-3.226563 0.300781,-0.109374 0.5625,-0.261718 0.5625,-0.335937 z M 6.636719,-4.835938 C 6.710938,-4.988281 6.75,-5.023438 6.75,-4.910156 6.75,-4.800781 6.710938,-4.574219 6.636719,-4.425781 6.5625,-4.160156 6.5625,-4.160156 6.5625,-4.347656 6.523438,-4.5 6.597656,-4.6875 6.636719,-4.835938 Z M 6.222656,-4.347656 C 6.261719,-4.535156 6.375,-4.949219 6.410156,-5.210938 6.484375,-5.660156 6.523438,-5.625 6.449219,-5.0625 c 0,0.375 -0.113281,0.75 -0.1875,0.863281 -0.113281,0.1875 -0.113281,0.148438 -0.039063,-0.148437 z M 6.035156,-3.75 c 0.074219,-0.148438 0.113282,-0.148438 0.113282,-0.035156 0,0.074218 -0.039063,0.261718 -0.113282,0.375 -0.148437,0.222656 -0.148437,0 0,-0.339844 z M 6.375,-3.5625 c 0.035156,0.074219 -0.078125,0.375 -0.226562,0.675781 -0.226563,0.488281 -0.375,0.675781 -0.375,0.523438 0,-0.148438 0.601562,-1.347657 0.601562,-1.199219 z m 4.949219,-24.707031 c 0.1875,-0.1875 0.148437,-0.113281 -0.113281,0.300781 -2.0625,2.773438 -5.363282,8.585938 -7.085938,12.410156 -0.527344,1.199219 -1.425781,3.636719 -1.949219,5.25 -0.675781,2.023438 -0.863281,2.511719 -0.75,1.835938 0.300781,-1.5 1.835938,-5.699219 3.296875,-8.773438 1.761719,-3.710937 5.625,-10.199218 6.601563,-11.023437 z M 1.6875,-4.875 c -0.039062,0.074219 -0.039062,0.039062 -0.039062,-0.148438 0,-0.152343 0,-0.226562 0.039062,-0.152343 0.039062,0.078125 0.039062,0.226562 0,0.300781 z m 8.734375,-23.019531 c 1.011719,-1.238281 1.011719,-1.125 0,0.226562 -2.511719,3.335938 -5.773437,9.296875 -7.496094,13.683594 -0.714843,1.835937 -1.6875,4.722656 -2.0625,6.109375 -0.039062,0.265625 -0.1875,0.527344 -0.226562,0.601562 -0.1875,0.074219 -0.113281,-0.148437 0.636719,-2.625 0.300781,-1.085937 0.9375,-2.886718 1.386718,-3.972656 1.875,-4.6875 5.511719,-11.25 7.761719,-14.023437 z m -2.4375,2.925781 c 0.078125,-0.152344 0.1875,-0.375 0.300781,-0.488281 l 0.226563,-0.261719 -0.152344,0.261719 c -0.035156,0.113281 -0.1875,0.335937 -0.296875,0.488281 l -0.1875,0.261719 z m -0.710937,1.234375 c 0.039062,-0.03516 0,0.113281 -0.148438,0.339844 -0.152344,0.261719 -0.265625,0.449219 -0.300781,0.449219 -0.113281,0 0.300781,-0.710938 0.449219,-0.789063 z m -2.472657,4.238281 c 0.074219,-0.148437 0.148438,-0.261718 0.1875,-0.261718 0.035157,0 0,0.113281 -0.078125,0.261718 -0.074218,0.113282 -0.148437,0.226563 -0.1875,0.226563 -0.035156,0 0,-0.113281 0.078125,-0.226563 z m -0.339843,0.710938 c 0.152343,-0.375 0.226562,-0.449219 0.226562,-0.261719 0,0.03906 -0.074219,0.226563 -0.1875,0.339844 -0.1875,0.222656 -0.1875,0.222656 -0.039062,-0.07813 z m -0.261719,0.488281 c 0.039062,-0.07422 0.113281,-0.113281 0.113281,-0.03516 0,0.07422 -0.074219,0.1875 -0.113281,0.296875 -0.074219,0.113281 -0.113281,0.113281 -0.113281,0.07813 0,-0.07813 0.039062,-0.226563 0.113281,-0.339844 z m -1.238281,2.773437 c 0.074218,-0.03516 0.074218,0 0.039062,0.113282 -0.074219,0.226562 -0.152344,0.261718 -0.152344,0.07422 0,-0.03516 0.039063,-0.148437 0.113282,-0.1875 z m -3.375,11.097657 c 0.078124,-1.046875 0.789062,-3.972657 1.425781,-5.921875 0.5625,-1.800782 1.6875,-4.800782 1.761719,-4.722656 0.039062,0.03516 -0.113282,0.484374 -0.300782,0.972656 -0.597656,1.425781 -1.535156,4.3125 -2.023437,6.113281 -0.222657,0.9375 -0.5234378,2.285156 -0.675781,3.035156 -0.1875,1.085938 -0.222657,1.199219 -0.1875,0.523438 z m 0.300781,1.613281 c -0.113281,0.789062 -0.113281,0.789062 -0.035157,-0.300781 0.0742192,-1.386719 0.410157,-3.371094 0.5625,-3.371094 0.074219,0 0.074219,0.148437 0.035157,0.375 -0.035157,0.222656 -0.148438,0.898437 -0.261719,1.460937 -0.074219,0.5625 -0.2265625,1.386719 -0.300781,1.835938 z m 0.5625,-0.898438 C 0.414062,-3.675781 0.375,-3.75 0.414062,-3.863281 c 0,-0.148438 0,-0.1875 0.035157,-0.074219 0.039062,0.074219 0.039062,0.1875 0,0.226562 z m 0.375,-1.726562 C 0.710938,-5.023438 0.636719,-4.574219 0.601562,-4.425781 0.5625,-4.125 0.523438,-4.125 0.523438,-4.386719 0.488281,-4.722656 0.75,-5.921875 0.898438,-6.035156 c 0.039062,-0.074219 0,0.1875 -0.074219,0.597656 z M 1.3125,-3.035156 C 1.273438,-2.925781 1.273438,-3 1.273438,-3.1875 c 0,-0.148438 0,-0.222656 0.039062,-0.148438 0.039062,0.074219 0.039062,0.222657 0,0.300782 z m 0.148438,-0.601563 c -0.035157,0.074219 -0.074219,0 -0.074219,-0.148437 0,-0.1875 0.039062,-0.265625 0.074219,-0.152344 0.039062,0.074219 0.039062,0.226562 0,0.300781 z M 1.5,-4.425781 c 0,-0.148438 0.039062,-0.222657 0.074219,-0.148438 0.039062,0.113281 0.039062,0.226563 0,0.335938 -0.035157,0.078125 -0.074219,0 -0.074219,-0.1875 z m 3.5625,-2.171875 0.488281,-0.039063 v 0.675781 c 0,0.824219 -0.375,2.0625 -0.976562,3.222657 C 4.011719,-1.574219 3.523438,-0.9375 2.625,0.0390625 2.175781,0.488281 1.761719,0.863281 1.726562,0.863281 c -0.1875,0 -0.265624,-1.425781 -0.113281,-2.589843 0.148438,-1.496094 0.597657,-3.558594 0.785157,-3.746094 0.261718,-0.226563 2.214843,-1.050782 2.664062,-1.125 z m 0,0"
             id="path25" />
        </g>
      </g>
    </g>
    <g
       fill="#296414"
       fill-opacity="1"
       id="g31"
       transform="translate(-117.45763,-19.220339)">
      <g
         transform="translate(141.56138,100.5)"
         id="g30">
        <g
           id="g29">
          <path
             d="m 16.796875,-14.433594 c -0.113281,0 -0.226563,-0.07422 -0.226563,-0.152344 -0.109374,-0.296874 -0.824218,0.414063 -1.722656,1.613282 -1.949218,2.585937 -4.914062,5.8125 -6.523437,7.011718 -1.6875,1.273438 -3.335938,1.949219 -4.6875,1.949219 -0.898438,0 -1.085938,-0.074219 -1.351563,-0.5625 C 1.875,-5.472656 1.914062,-6.335938 2.4375,-7.984375 c 0.148438,-0.527344 0.222656,-0.5625 0.449219,-0.488281 0.5625,0.222656 1.835937,0.113281 2.550781,-0.226563 1.574219,-0.710937 3.75,-2.699219 4.984375,-4.535156 0.675781,-1.011719 1.125,-2.398437 1.238281,-3.601563 0.07422,-1.121093 -0.226562,-1.835937 -0.976562,-2.359374 -0.261719,-0.226563 -0.597656,-0.527344 -0.75,-0.675782 -0.558594,-0.75 -2.097656,-0.898437 -3.597656,-0.335937 -1.835938,0.710937 -4.125,2.734375 -5.660157,5.058593 -2.738281,4.164063 -3.335937,7.460938 -1.726562,9.863282 0.601562,0.859375 1.464843,1.722656 2.0625,2.023437 0.300781,0.148438 0.714843,0.414063 0.976562,0.601563 0.222657,0.1875 0.710938,0.449218 1.046875,0.523437 1.238282,0.375 2.476563,0.222657 3.902344,-0.449219 2.625,-1.277343 6.148438,-5.101562 9.371094,-10.125 0.5625,-0.898437 0.789062,-1.722656 0.488281,-1.722656 z m -6.449219,-1.3125 c 0.03906,-0.152344 0.07422,-0.152344 0.113282,-0.03906 0,0.113281 -0.07422,0.261718 -0.113282,0.375 -0.148437,0.226562 -0.148437,0 0,-0.335938 z m -0.523437,1.238282 c 0.335937,-0.640626 0.375,-0.640626 0.1875,0.07422 -0.039063,0.113282 0.03516,0.03516 0.109375,-0.152344 0.339844,-0.523437 0.375,-0.410156 0.07813,0.1875 -0.339844,0.675782 -0.75,1.199219 -0.824219,1.125 -0.039062,-0.03516 -0.1875,0.03906 -0.300781,0.152344 -0.1875,0.148438 -0.152344,0.07422 0.074219,-0.226562 0.148437,-0.226563 0.488281,-0.75 0.675781,-1.160156 z m -6.261719,0 c 0,-0.152344 1.460938,-1.914063 1.574219,-1.914063 0,0 -0.300781,0.449219 -0.710938,0.976563 -0.902343,1.125 -0.863281,1.085937 -0.863281,0.9375 z m 1.574219,1.273437 c 1.574219,-2.324219 3.148437,-4.050781 4.199219,-4.574219 0.523437,-0.261718 0.5625,-0.113281 0.300781,1.085938 -0.527344,2.699218 -2.664063,5.398437 -5.136719,6.601562 -0.675781,0.335938 -1.277344,0.449219 -1.277344,0.261719 0,-0.1875 1.277344,-2.4375 1.914063,-3.375 z m -5.285157,3.898437 c -0.1875,0.601563 -0.375,1.125 -0.414062,1.164063 -0.1875,0.1875 0.449219,-2.175781 0.710938,-2.589844 0.152343,-0.222656 0.113281,-0.03516 -0.296876,1.425781 z M -0.113281,-7.386719 -0.0390625,-8.25 c 0,-0.449219 0.1523435,-1.125 0.2656245,-1.460938 0.222657,-0.710937 0.484376,-1.050781 0.375,-0.488281 C 0.523438,-10.011719 0.375,-9.296875 0.1875,-8.625 Z M 0.523438,-7.910156 C 0.488281,-8.210938 0.898438,-9.710938 1.011719,-9.824219 1.085938,-9.898438 1.125,-9.898438 1.125,-9.785156 c 0,0.261718 -0.601562,2.0625 -0.601562,1.875 z M 1.914062,-8.136719 C 1.835938,-7.910156 1.761719,-7.535156 1.648438,-7.273438 L 1.5,-6.785156 1.574219,-7.273438 c 0.039062,-0.261718 0.152343,-0.636718 0.226562,-0.824218 l 0.1875,-0.375 z m 13.457032,-4.046875 c -0.07422,0.109375 -0.1875,0.1875 -0.222656,0.148438 -0.03906,-0.03906 -0.152344,0 -0.265626,0.07422 -0.1875,0.152344 -0.1875,0.152344 -0.03516,-0.07422 0.113282,-0.113282 0.222656,-0.1875 0.261719,-0.148438 0,0.03516 0.148437,0 0.226563,-0.07813 0.1875,-0.148437 0.1875,-0.148437 0.03516,0.07813 z m 0.226562,-0.9375 c 0,-0.03906 0.113282,-0.152344 0.222656,-0.226562 0.1875,-0.148438 0.1875,-0.148438 0.03906,0.03906 -0.148437,0.222656 -0.261719,0.261719 -0.261719,0.1875 z m 0.410156,0.07422 c -0.1875,0.1875 -0.261718,0.261719 -0.261718,0.148437 0,-0.03516 0.07422,-0.113281 0.1875,-0.222656 0.1875,-0.152344 0.226562,-0.152344 0.07422,0.07422 z m 0.640626,-0.9375 c -0.113282,0.1875 -0.1875,0.226563 -0.1875,0.03906 0,-0.07813 -0.07813,-0.113282 -0.152344,-0.03906 -0.07422,0.03906 -0.113282,0.03906 -0.03516,-0.03906 0.148437,-0.1875 0.410156,-0.148437 0.375,0.03906 z m -6.9375,0.226563 c 0.148437,-0.265626 0.261718,-0.488282 0.222656,-0.527344 -0.074219,-0.03516 -0.597656,0.75 -0.597656,0.898437 0,0.152344 0.148437,0 0.375,-0.371093 z m 0,0"
             id="path28" />
        </g>
      </g>
    </g>
    <g
       fill="#296414"
       fill-opacity="1"
       id="g34"
       transform="translate(-117.45763,-19.220339)">
      <g
         transform="translate(156.5942,100.5)"
         id="g33">
        <g
           id="g32">
          <path
             d="m 16.796875,-14.433594 c -0.113281,0 -0.226563,-0.07422 -0.226563,-0.152344 -0.109374,-0.296874 -0.824218,0.414063 -1.722656,1.613282 -1.949218,2.585937 -4.914062,5.8125 -6.523437,7.011718 -1.6875,1.273438 -3.335938,1.949219 -4.6875,1.949219 -0.898438,0 -1.085938,-0.074219 -1.351563,-0.5625 C 1.875,-5.472656 1.914062,-6.335938 2.4375,-7.984375 c 0.148438,-0.527344 0.222656,-0.5625 0.449219,-0.488281 0.5625,0.222656 1.835937,0.113281 2.550781,-0.226563 1.574219,-0.710937 3.75,-2.699219 4.984375,-4.535156 0.675781,-1.011719 1.125,-2.398437 1.238281,-3.601563 0.07422,-1.121093 -0.226562,-1.835937 -0.976562,-2.359374 -0.261719,-0.226563 -0.597656,-0.527344 -0.75,-0.675782 -0.558594,-0.75 -2.097656,-0.898437 -3.597656,-0.335937 -1.835938,0.710937 -4.125,2.734375 -5.660157,5.058593 -2.738281,4.164063 -3.335937,7.460938 -1.726562,9.863282 0.601562,0.859375 1.464843,1.722656 2.0625,2.023437 0.300781,0.148438 0.714843,0.414063 0.976562,0.601563 0.222657,0.1875 0.710938,0.449218 1.046875,0.523437 1.238282,0.375 2.476563,0.222657 3.902344,-0.449219 2.625,-1.277343 6.148438,-5.101562 9.371094,-10.125 0.5625,-0.898437 0.789062,-1.722656 0.488281,-1.722656 z m -6.449219,-1.3125 c 0.03906,-0.152344 0.07422,-0.152344 0.113282,-0.03906 0,0.113281 -0.07422,0.261718 -0.113282,0.375 -0.148437,0.226562 -0.148437,0 0,-0.335938 z m -0.523437,1.238282 c 0.335937,-0.640626 0.375,-0.640626 0.1875,0.07422 -0.039063,0.113282 0.03516,0.03516 0.109375,-0.152344 0.339844,-0.523437 0.375,-0.410156 0.07813,0.1875 -0.339844,0.675782 -0.75,1.199219 -0.824219,1.125 -0.039062,-0.03516 -0.1875,0.03906 -0.300781,0.152344 -0.1875,0.148438 -0.152344,0.07422 0.074219,-0.226562 0.148437,-0.226563 0.488281,-0.75 0.675781,-1.160156 z m -6.261719,0 c 0,-0.152344 1.460938,-1.914063 1.574219,-1.914063 0,0 -0.300781,0.449219 -0.710938,0.976563 -0.902343,1.125 -0.863281,1.085937 -0.863281,0.9375 z m 1.574219,1.273437 c 1.574219,-2.324219 3.148437,-4.050781 4.199219,-4.574219 0.523437,-0.261718 0.5625,-0.113281 0.300781,1.085938 -0.527344,2.699218 -2.664063,5.398437 -5.136719,6.601562 -0.675781,0.335938 -1.277344,0.449219 -1.277344,0.261719 0,-0.1875 1.277344,-2.4375 1.914063,-3.375 z m -5.285157,3.898437 c -0.1875,0.601563 -0.375,1.125 -0.414062,1.164063 -0.1875,0.1875 0.449219,-2.175781 0.710938,-2.589844 0.152343,-0.222656 0.113281,-0.03516 -0.296876,1.425781 z M -0.113281,-7.386719 -0.0390625,-8.25 c 0,-0.449219 0.1523435,-1.125 0.2656245,-1.460938 0.222657,-0.710937 0.484376,-1.050781 0.375,-0.488281 C 0.523438,-10.011719 0.375,-9.296875 0.1875,-8.625 Z M 0.523438,-7.910156 C 0.488281,-8.210938 0.898438,-9.710938 1.011719,-9.824219 1.085938,-9.898438 1.125,-9.898438 1.125,-9.785156 c 0,0.261718 -0.601562,2.0625 -0.601562,1.875 z M 1.914062,-8.136719 C 1.835938,-7.910156 1.761719,-7.535156 1.648438,-7.273438 L 1.5,-6.785156 1.574219,-7.273438 c 0.039062,-0.261718 0.152343,-0.636718 0.226562,-0.824218 l 0.1875,-0.375 z m 13.457032,-4.046875 c -0.07422,0.109375 -0.1875,0.1875 -0.222656,0.148438 -0.03906,-0.03906 -0.152344,0 -0.265626,0.07422 -0.1875,0.152344 -0.1875,0.152344 -0.03516,-0.07422 0.113282,-0.113282 0.222656,-0.1875 0.261719,-0.148438 0,0.03516 0.148437,0 0.226563,-0.07813 0.1875,-0.148437 0.1875,-0.148437 0.03516,0.07813 z m 0.226562,-0.9375 c 0,-0.03906 0.113282,-0.152344 0.222656,-0.226562 0.1875,-0.148438 0.1875,-0.148438 0.03906,0.03906 -0.148437,0.222656 -0.261719,0.261719 -0.261719,0.1875 z m 0.410156,0.07422 c -0.1875,0.1875 -0.261718,0.261719 -0.261718,0.148437 0,-0.03516 0.07422,-0.113281 0.1875,-0.222656 0.1875,-0.152344 0.226562,-0.152344 0.07422,0.07422 z m 0.640626,-0.9375 c -0.113282,0.1875 -0.1875,0.226563 -0.1875,0.03906 0,-0.07813 -0.07813,-0.113282 -0.152344,-0.03906 -0.07422,0.03906 -0.113282,0.03906 -0.03516,-0.03906 0.148437,-0.1875 0.410156,-0.148437 0.375,0.03906 z m -6.9375,0.226563 c 0.148437,-0.265626 0.261718,-0.488282 0.222656,-0.527344 -0.074219,-0.03516 -0.597656,0.75 -0.597656,0.898437 0,0.152344 0.148437,0 0.375,-0.371093 z m 0,0"
             id="path31" />
        </g>
      </g>
    </g>
  </g>
</svg>
