<?xml version="1.0" encoding="UTF-8" standalone="no"?>
<!-- Created with Inkscape (http://www.inkscape.org/) -->

<svg
   width="10in"
   height="10in"
   viewBox="0 0 254 254"
   version="1.1"
   id="svg1"
   inkscape:version="1.3.2 (091e20ef0f, 2023-11-25)"
   sodipodi:docname="icon.svg"
   xmlns:inkscape="http://www.inkscape.org/namespaces/inkscape"
   xmlns:sodipodi="http://sodipodi.sourceforge.net/DTD/sodipodi-0.dtd"
   xmlns="http://www.w3.org/2000/svg"
   xmlns:svg="http://www.w3.org/2000/svg">
  <sodipodi:namedview
     id="namedview1"
     pagecolor="#ffffff"
     bordercolor="#ffffff"
     borderopacity="1"
     inkscape:showpageshadow="0"
     inkscape:pageopacity="0"
     inkscape:pagecheckerboard="false"
     inkscape:deskcolor="#505050"
     inkscape:document-units="mm"
     showborder="false"
     inkscape:zoom="0.81893143"
     inkscape:cx="600.17235"
     inkscape:cy="387.70035"
     inkscape:window-width="2536"
     inkscape:window-height="1367"
     inkscape:window-x="12"
     inkscape:window-y="61"
     inkscape:window-maximized="0"
     inkscape:current-layer="layer1" />
  <defs
     id="defs1" />
  <g
     inkscape:label="Layer 1"
     inkscape:groupmode="layer"
     id="layer1">
    <g
       fill="#296414"
       fill-opacity="1"
       id="g4"
       transform="matrix(4.8061019,0,0,4.8061019,-315.35533,-130.54289)">
      <g
         transform="translate(68.672977,74.999998)"
         id="g3">
        <g
           id="g2">
          <path
             d="m 1.6875,-7.085938 c 0.113281,0 0.226562,0.039063 0.226562,0.113282 0,0.074218 0.074219,0.074218 0.183594,0.035156 0.113282,-0.035156 0.152344,0 0.113282,0.152344 -0.113282,0.261718 0.152343,0.5625 0.449218,0.5625 0.113282,0 0.675782,-0.414063 1.203125,-0.9375 0.972657,-0.902344 3.074219,-2.550782 3.148438,-2.476563 0.035156,0.039063 -0.1875,0.5625 -0.449219,1.164063 -1.386719,3.261718 -1.839844,5.359375 -1.425781,6.636718 0.261719,0.710938 1.347656,1.984376 1.722656,1.984376 0.113281,0 0.339844,0.113281 0.488281,0.300781 0.375,0.375 0.675782,0.375 0.976563,0.074219 0.222656,-0.261719 0.785156,-1.722657 1.273437,-3.335938 0.449219,-1.574219 1.875,-5.0625 3.074219,-7.574219 0.9375,-2.0625 1.085937,-2.285156 1.5,-2.472656 0.636719,-0.339844 3.675781,-1.164063 5.585937,-1.574219 2.4375,-0.527344 7.5,-1.164062 7.5,-0.9375 0,0.03516 -0.5625,1.347656 -1.238281,2.960938 -1.460937,3.488281 -3.410156,7.421875 -4.648437,9.449218 -1.199219,1.949219 -1.238282,2.0625 -1.164063,2.511719 0.07813,0.449219 0.789063,1.460938 0.9375,1.386719 0.03906,-0.039062 0.1875,0.039062 0.300781,0.148438 0.113282,0.113281 0.375,0.453124 0.636719,0.75 0.375,0.449218 0.488281,0.488281 0.9375,0.488281 0.300781,0 0.601563,-0.074219 0.789063,-0.226563 0.785156,-0.671875 3.261718,-5.285156 5.097656,-9.484375 0.9375,-2.175781 2.625,-6.558593 2.8125,-7.308593 0.07422,-0.1875 0.148438,-0.375 0.1875,-0.414063 0.03906,-0.03906 0.488281,0.03906 0.976562,0.1875 0.484376,0.148437 0.972657,0.226563 1.121094,0.226563 0.152344,0 0.414063,0.148437 0.5625,0.335937 l 0.300782,0.335937 0.261718,-0.261718 c 0.1875,-0.1875 0.226563,-0.335938 0.152344,-0.5625 -0.07422,-0.335938 -0.824219,-1.3125 -1.800781,-2.324219 l -0.75,-0.75 0.152343,-0.5625 c 0.449219,-1.761719 0.746094,-3.296875 0.933594,-4.421875 0.226563,-1.652344 0.226563,-4.164062 0,-5.289062 -0.222656,-1.085938 -0.859375,-2.398438 -1.535156,-3.261719 -0.300781,-0.375 -0.710938,-0.9375 -0.898438,-1.238281 -0.675781,-1.199219 -1.875,-1.949219 -3.226562,-2.058594 -2.136719,-0.113282 -4.3125,1.160156 -7.835938,4.683594 -1.875,1.914062 -3.375,3.675781 -5.097656,6.074218 -1.351562,1.800782 -3.449218,5.0625 -4.351562,6.675782 -0.671875,1.234374 -0.859375,1.460937 -1.234375,1.609374 -2.0625,0.863282 -4.988281,2.511719 -6.261719,3.601563 -1.6875,1.425781 -2.4375,2.511719 -2.4375,3.597656 0,0.714844 0.375,1.425781 0.75,1.425781 z m 6.710938,6.261719 C 8.285156,-0.523438 8.171875,-0.226562 8.136719,-0.1875 8.0625,-0.113281 8.097656,-0.335938 8.210938,-0.675781 c 0.113281,-0.335938 0.1875,-0.636719 0.1875,-0.710938 0,-0.074219 0.039062,-0.074219 0.074218,-0.039062 0.039063,0.039062 0,0.300781 -0.074218,0.601562 z m 1.722656,-5.136719 c -0.371094,0.9375 -0.898438,2.472657 -1.234375,3.488282 -0.226563,0.785156 -0.375,1.085937 -0.375,0.785156 0,-0.410156 1.6875,-5.097656 1.796875,-4.984375 0.03906,0.035156 -0.07422,0.335937 -0.1875,0.710937 z m 12.636718,3.9375 c 1.273438,-2.25 3.261719,-6.414062 4.800782,-10.160156 0.824218,-1.949218 1.046875,-2.289062 0.375,-0.527344 -1.5,3.863282 -3.261719,7.613282 -4.6875,10.050782 -0.488282,0.859375 -0.976563,1.609375 -1.011719,1.648437 -0.07813,0.035157 0.148437,-0.414062 0.523437,-1.011719 z m -1.085937,1.9843755 C 21.59375,0.148438 21.519531,0.1875 21.519531,0.0390625 c 0,-0.078125 0.03906,-0.1523435 0.113281,-0.1875005 0.07422,-0.078124 0.07422,0 0.03906,0.1093755 z m 1.347656,0.078125 C 22.757812,0.375 22.53125,0.636719 22.457031,0.636719 c -0.07422,0 0,-0.1875 0.1875,-0.410157 0.675781,-0.902343 2.25,-3.636718 3.335938,-5.851562 0.640625,-1.3125 1.164062,-2.359375 1.164062,-2.324219 0,0.152344 -1.085937,2.550781 -1.835937,4.011719 -0.824219,1.652344 -1.6875,3.148438 -2.289063,3.9765625 z m 2.289063,-1.2382815 c -0.07422,0.113281 -0.152344,0.222657 -0.1875,0.222657 -0.03906,0 0,-0.109376 0.07422,-0.222657 0.03906,-0.152343 0.148438,-0.261719 0.1875,-0.261719 0.03516,0 0,0.109376 -0.07422,0.261719 z m 1.085937,-2.101562 c -0.414062,0.828125 -0.75,1.464843 -0.789062,1.464843 -0.07422,0 0.07813,-0.300781 0.488281,-1.125 0.375,-0.675781 1.949219,-4.164062 2.8125,-6.226562 0.1875,-0.449219 0.375,-0.824219 0.414062,-0.785156 0.109376,0.113281 -1.800781,4.460937 -2.925781,6.671875 z m 0.898438,-6.371094 c -1.535157,3.636719 -3.371094,7.121094 -5.058594,9.7109375 -0.265625,0.4101565 -0.488281,0.5976565 -0.488281,0.4101565 0,-0.035157 0.300781,-0.5234378 0.636718,-1.085938 0.9375,-1.425781 1.800782,-3 3.035157,-5.550781 0.976562,-1.949219 3.039062,-6.710938 3.714843,-8.472656 0.113282,-0.375 0.261719,-0.636719 0.296876,-0.597656 0.07812,0.109374 -0.972657,2.886718 -2.136719,5.585937 z m 3,-20.695313 c 0.527343,0.261719 0.449219,3.035157 -0.1875,6.070313 -0.261719,1.390625 -1.011719,4.050781 -1.347657,4.988281 l -0.152343,0.300782 -2.960938,0.07422 c -2.925781,0.07422 -4.199219,0.1875 -6.9375,0.710938 -1.871093,0.300781 -1.796875,0.339844 -1.460937,-0.222656 0.449218,-0.75 2.023437,-2.964844 2.960937,-4.125 4.125,-5.285157 8.476563,-8.660157 10.085938,-7.796876 z m -12.933594,10.683594 c -0.148437,0.226563 -0.261719,0.261719 -0.261719,0.1875 0,-0.03906 0.07422,-0.113281 0.222656,-0.226562 0.1875,-0.148438 0.1875,-0.148438 0.03906,0.03906 z m 0.1875,-1.988281 c 0.1875,-0.148437 0.1875,-0.148437 0.03516,0.03906 -0.07422,0.113281 -0.183593,0.222656 -0.183593,0.222656 -0.113282,0 -0.03906,-0.109375 0.148437,-0.261719 z m 0.675781,-0.824219 c -0.1875,0.226563 -0.265625,0.261719 -0.265625,0.1875 0,-0.03516 0.07813,-0.148437 0.1875,-0.222656 0.226563,-0.152344 0.226563,-0.152344 0.07813,0.03516 z m 0.109375,-0.300781 c 0,-0.03516 0.07813,-0.148437 0.1875,-0.222656 0.1875,-0.152344 0.226563,-0.152344 0.07813,0.03516 -0.1875,0.226563 -0.265625,0.265625 -0.265625,0.1875 z m 0.976563,-1.273437 0.414062,-0.335938 -0.300781,0.375 c -0.1875,0.222656 -0.339844,0.410156 -0.414063,0.410156 -0.148437,0 -0.113281,-0.07422 0.300782,-0.449218 z m 1.386718,-1.613282 c 0.07422,-0.03516 -0.07422,0.1875 -0.335937,0.488282 -0.261719,0.335937 -0.488281,0.601562 -0.527344,0.601562 -0.07422,0 0.675781,-0.976562 0.863281,-1.089844 z m 3.976563,-4.496094 c -3,2.699219 -5.699219,5.847657 -8.773437,10.457032 -0.902344,1.351562 -1.6875,2.476562 -1.765626,2.476562 -0.1875,0 1.988282,-3.335937 3.789063,-5.773437 2.023437,-2.738281 4.3125,-5.210938 6.035156,-6.636719 1.199219,-1.011719 1.574219,-1.273438 0.714844,-0.523438 z m -1.203125,0.07422 c 0.1875,-0.152343 -0.335938,0.410157 -1.160156,1.234375 -2.476563,2.515625 -4.761719,5.363282 -7.199219,9.113282 -0.710937,1.085937 -1.386719,2.136718 -1.5,2.359374 -0.148437,0.226563 -0.300781,0.375 -0.410156,0.375 -0.226563,0 2.246093,-3.824218 4.160156,-6.371093 1.761719,-2.363281 4.796875,-5.664063 6.109375,-6.710938 z m -7.347656,7.648438 c 1.011718,-1.425781 3,-3.9375 3.1875,-4.050781 0.07422,-0.03516 -0.375,0.527343 -0.976563,1.3125 -1.234375,1.5 -3.746093,5.136718 -4.871093,6.972656 -0.675782,1.125 -1.011719,1.613281 -1.011719,1.425781 0,-0.226563 2.359375,-3.863281 3.671875,-5.660156 z m -3.222656,10.121093 c 0,0.03906 -0.261719,0.675782 -0.636719,1.425782 -0.375,0.710937 -0.675781,1.273437 -0.675781,1.238281 0,-0.1875 1.238281,-2.699219 1.3125,-2.664063 z m -1.3125,2.8125 c 0,0.039063 -0.261719,0.636719 -0.5625,1.3125 -0.527344,1.199219 -0.675782,1.5 -0.675782,1.351563 0,-0.226563 1.199219,-2.851563 1.238282,-2.664063 z m -1.050782,-0.597656 C 9.1875,-7.085938 8.324219,-4.949219 7.6875,-2.699219 7.421875,-1.835938 7.199219,-1.5 7.347656,-2.175781 7.5,-2.773438 8.171875,-4.949219 8.472656,-5.8125 c 0.414063,-1.085938 1.800782,-4.308594 2.289063,-5.246094 0.597656,-1.238281 0.484375,-0.675781 -0.226563,0.937501 z m -0.488281,-1.089844 c 0.414063,-0.523437 0.226563,0.03906 -0.523437,1.6875 C 8.4375,-7.085938 7.574219,-4.6875 7.160156,-3.035156 6.75,-1.460938 6.636719,-1.199219 6.75,-2.175781 c 0.1875,-1.421875 0.824219,-3.335938 2.171875,-6.523438 0.527344,-1.273437 1.050781,-2.398437 1.125,-2.511718 z m -0.5625,0.1875 c 0.078125,0 -0.296875,0.9375 -0.785156,2.101563 -0.488281,1.125 -1.199219,2.886719 -1.5,3.898437 -0.339844,0.972657 -0.675781,1.988282 -0.75,2.210938 L 6.335938,-2.363281 6.375,-2.886719 c 0.074219,-0.675781 0.671875,-2.511719 1.347656,-4.199219 0.863282,-2.136718 1.6875,-3.9375 1.761719,-3.937499 z m -6.222656,2.289063 c -0.300781,0.523437 -0.976563,1.574219 -0.976563,1.5 0,-0.1875 0.453125,-1.015625 0.789063,-1.390625 0.1875,-0.1875 0.261719,-0.261719 0.1875,-0.109375 z M 2.585938,-8.773438 C 2.625,-8.734375 2.511719,-8.4375 2.324219,-8.0625 c -0.300781,0.640625 -0.488281,0.789062 -0.335938,0.339844 0.109375,-0.375 0.5625,-1.125 0.597657,-1.050782 z M 1.914062,-8.4375 c 0.074219,-0.109375 0.109376,-0.109375 0.109376,-0.074219 0,0.074219 -0.035157,0.226563 -0.109376,0.339844 -0.078124,0.074219 -0.113281,0.109375 -0.113281,0.035156 0,-0.074219 0.035157,-0.1875 0.113281,-0.300781 z m 25.941407,-30.367188 c 0.113281,-0.07422 0.453125,0.414063 0.453125,0.601563 0,0.335937 0.1875,0.597656 0.375,0.484375 0.07422,-0.03516 0.109375,-0.03516 0.109375,0.03906 0,0.300782 0.488281,-0.148437 2.25,-2.210937 0.976562,-1.125 2.210937,-2.4375 2.738281,-2.886719 0.488281,-0.488281 0.972656,-1.015625 1.050781,-1.164062 0.148438,-0.261719 0.109375,-0.335938 -0.414062,-0.898438 -0.449219,-0.488281 -0.675781,-0.601562 -0.976563,-0.601562 -1.046875,0 -5.398437,3.636718 -6.148437,5.136718 -0.261719,0.523438 -0.261719,0.523438 -0.03516,1.011719 0.222657,0.449219 0.449219,0.601563 0.597657,0.488281 z m 4.164062,-3.972656 c 0.300781,-0.265625 0.03516,0.07422 -0.636719,0.75 -0.640624,0.671875 -1.539062,1.648438 -1.988281,2.171875 -0.449219,0.527344 -0.824219,0.902344 -0.824219,0.824219 0,-0.222656 2.359376,-2.808594 3.449219,-3.746094 z m -1.949219,1.347656 0.410157,-0.375 -0.375,0.414063 c -0.1875,0.222656 -0.375,0.375 -0.410157,0.375 -0.07812,0 0,-0.07422 0.375,-0.414063 z m -1.199218,1.273438 c 0.710937,-0.824219 0.671875,-0.785156 0.671875,-0.710938 0,0.03906 -0.261719,0.414063 -0.597657,0.863282 -0.339843,0.410156 -0.636718,0.710937 -0.636718,0.636718 0,-0.03906 0.261718,-0.414062 0.5625,-0.789062 z m 0,0"
             id="path2" />
        </g>
      </g>
    </g>
  </g>
</svg>
